/* XPM */
static char *_4fd79eafbe34d30c524f28b3ab62180ButWFfwmIcYJamvg[] = {
/* columns rows colors chars-per-pixel */
"60 34 199 2 ",
"   c #873D1C",
".  c #A85C1F",
"X  c #BC6913",
"o  c #B36319",
"O  c #BE6E19",
"+  c #BA6714",
"@  c #874125",
"#  c #8B4C39",
"$  c #9D5932",
"%  c #9C5C3C",
"&  c #A75B20",
"*  c #A15F37",
"=  c #AF6423",
"-  c #B26622",
";  c #B36825",
":  c #A3623A",
">  c #BF7A38",
",  c #C46E0E",
"<  c #C7710D",
"1  c #CA730C",
"2  c #D37A07",
"3  c #D47C0A",
"4  c #D07708",
"5  c #C67213",
"6  c #C87210",
"7  c #C67722",
"8  c #9D634A",
"9  c #99655B",
"0  c #A16649",
"q  c #A26442",
"w  c #A36B51",
"e  c #A16D5B",
"r  c #AF7651",
"t  c #B37A51",
"y  c #A27367",
"u  c #A5786F",
"i  c #A67B73",
"p  c #A57B76",
"a  c #D5840A",
"s  c #D98209",
"d  c #D38A0E",
"f  c #DA8B0B",
"g  c #DB940D",
"h  c #CF801D",
"j  c #D98911",
"k  c #D78816",
"l  c #D59511",
"z  c #DC9D10",
"x  c #D99119",
"c  c #E58A06",
"v  c #EA8E04",
"b  c #E28B08",
"n  c #EB9506",
"m  c #ED9A06",
"M  c #E4940A",
"N  c #EA9B0A",
"B  c #E79A09",
"V  c #F59C04",
"C  c #E79B16",
"Z  c #DDAC14",
"A  c #DFB214",
"S  c #E5A20E",
"D  c #ECA20A",
"F  c #E7AC0F",
"G  c #ECAC0D",
"H  c #F6A305",
"J  c #F7A907",
"K  c #F2A609",
"L  c #F3AC0A",
"P  c #F8AE08",
"I  c #F8A70B",
"U  c #EDB20F",
"Y  c #EEB90F",
"T  c #F4B40D",
"R  c #F8B30B",
"E  c #F6BB0E",
"W  c #F9BD0E",
"Q  c #E5A312",
"!  c #EBAC14",
"~  c #EDAA19",
"^  c #F3AC17",
"/  c #E7B111",
"(  c #EBB411",
")  c #E4BA14",
"_  c #EEBB11",
"`  c #EABD19",
"'  c #E5B718",
"]  c #F4B614",
"[  c #F2BC12",
"{  c #F3B51A",
"}  c #F5BC1A",
"|  c #F8B51D",
" . c #D58D26",
".. c #D69D2D",
"X. c #D89B28",
"o. c #DC9933",
"O. c #D8993A",
"+. c #E19524",
"@. c #D9A328",
"#. c #DAA222",
"$. c #DCA238",
"%. c #DCA134",
"&. c #EAA928",
"*. c #F5AB22",
"=. c #E1B620",
"-. c #F6B826",
";. c #E9B739",
":. c #FBBE38",
">. c #E9A93E",
",. c #EDC314",
"<. c #ECCD15",
"1. c #E6C51A",
"2. c #E9C41A",
"3. c #ECCB18",
"4. c #E6C513",
"5. c #F5C412",
"6. c #F9C410",
"7. c #F3CC14",
"8. c #F9CC13",
"9. c #F5CC1C",
"0. c #F5C51A",
"q. c #EED216",
"w. c #EFD817",
"e. c #F3D415",
"r. c #F9D414",
"t. c #F4DB16",
"y. c #F9DB15",
"u. c #F2D41C",
"i. c #F5DB1B",
"p. c #F8D619",
"a. c #F6E416",
"s. c #F8E417",
"d. c #F9E917",
"f. c #F5E21A",
"g. c #ECCB23",
"h. c #EBCC2C",
"j. c #F2C426",
"k. c #F4CF25",
"l. c #F6C22C",
"z. c #F6C82A",
"x. c #EFD323",
"c. c #EED12B",
"v. c #F3D52E",
"b. c #F4DD29",
"n. c #F7D927",
"m. c #ECCA31",
"M. c #F5C534",
"N. c #F4CD32",
"B. c #F9C83C",
"V. c #F8D737",
"C. c #F8E030",
"Z. c #BF8656",
"A. c #AB857F",
"S. c #AD8171",
"D. c #BB8E72",
"F. c #B78565",
"G. c #CA935E",
"H. c #CD904E",
"J. c #E1A54A",
"K. c #F2B846",
"L. c #C69368",
"P. c #F7CD45",
"I. c #F3DA45",
"U. c #FCDF4C",
"Y. c #F4D74A",
"T. c #FDDE5E",
"R. c #FBD956",
"E. c #FCE349",
"W. c #FCE354",
"Q. c #FDDD63",
"!. c #FDE26C",
"~. c #AD8885",
"^. c #B18E8A",
"/. c #B3908C",
"(. c #BA9C9A",
"). c #B59693",
"_. c #C4ADAC",
"`. c #C1A8A6",
"'. c #C9B4B2",
"]. c #CDBABA",
"[. c #D1C0BF",
"{. c #D4C5C4",
"}. c #DBCFCF",
"|. c #D7C8C7",
" X c #DDD2D2",
".X c #E3DBDB",
"XX c #EAE5E4",
"oX c #EDEBEB",
"OX c #F0EEEE",
"+X c #F1F1F1",
"@X c gray94",
"#X c gray95",
"$X c #F3F3F3",
"%X c #F2F1F1",
"&X c #F3F4F4",
"*X c #F4F4F4",
"=X c #F5F5F5",
"-X c #F5F6F6",
";X c #F3F3F3",
/* pixels */
"-X+X-XOX-X+X-X+X*X+X*X+X*X;X;X;X;X*X;X;X+X*X+XXX[.^.9 # @     @ # 9 /.{.XX@X;X;X&X;X;X;X+X-X@X*X@X-X@X-X@X-X@X*X@X*X+X-X",
"OX-X+X*X+X+X+X+X+X*X+X*X+X;X;X;X;X+X;X;X$XXX'.i % & X < 4 3 3 3 1 + & % i '.XX&X;X;X;X;X*X+X$X+X*X@X*X+X*X@X*X@X*X+X*X@X",
"-X+X+X+X*X+X-X+X*X+X*X+X*X*X%X;X%X*X;X;X{.p $ + 3 j  .o.$.$.$...x k s 3 X $ p |.;X;X;X;X+X*X+X-X+X*X+X*X+X*X+X*X+X*X$X*X",
"OX-X+X-X+X$X+X$X+X*X+X*X+X;X;X;X;X*XoX_.8 o 3 d X.;.N.k.k.9.9.0.} ( Q g s 4 o 8 _.oX-X;X$X+X$X$X*X+X*X+X*X+X*X+X*X+X$X+X",
"-X+X-X+X*X+X*X+X;X+X*X+X+X*X%X$X;XoX(.* , a z ) u.p.p.r.r.8.8.8.6.6.W ] S f s , * (.oX-X$X$X+X$X@X*X+X*X+X*X@X*X+X*X+X*X",
"OX-X+X*X+X*X+X*X%X*X+X*X+X%X*X*X%X(.q 6 d F q.y.y.y.y.r.r.8.8.8.6.6.W R T D g s < : (.oX&X+X$X$X*X$X*X@X*X$X*X+X*X+X*X@X",
"*X+X*X+X*X+X*X+X;X;X*X+X*X*X$X*X'.w 5 l ) i.t.a.y.y.y.r.r.8.8.8.6.6.6.R R T K M a < q '.&X$X+X$X+X*X+X*X+X*X+X*X+X*X+X*X",
"+X$X+X*X+X*X+X*X+X*X+X*X+X%X-X}.y >  .) i.w.<.7.y.y.r.r.r.r.8.6.6.6.W E G G D D M 2 , e  X-X$X+X*X+X*X+X*X+X*X+X*X+X*X+X",
"*X+X$X$X$X+X$X$X$X+X$X$X$X*XOX^.r  .A w.t.7.[ ,.e.y.r.r.r.r.8.8.6.6.W ] U Y D D m f 2 - ^.oX*X*X+X*X+X*X+X*X+X*X+X$X+X*X",
"$X$X+X$X$X+X$X$X$X$X+X$X$X=X[.y H.@.<.b.v.9.[ _ e.y.y.r.7.5._ 5.6.6.W T U T K B m n s < 0 {.*X+X*X+X*X+X*X+X*X+X*X$X$X+X",
"$X+X$X$X+X$X$X$X$X$X$X$X*X%X).F.O.A f.I.R.b.5._ 7.y.7.) ) ) / F F _ W ( _ T K m n m b 3 - ^.@X*X$X$X+X*X$X$X$X$X$X*X+X*X",
"$X$X+X$X$X$X+X$X+X$X+X$X=X.Xi G.@.q.d.v.Y.Y.N.} T ) 4.g.N.B.M.-.! S U ,.5.U D B B V n 3 6 e .X*X$X*X+X$X+X$X$X+X$X+X$X$X",
"+X$X$X+X$X$X$X+X$X$X$X+X-X].S.H.=.f.d.f.n.b.v.l.] [ v.E.W.Q.Q.R.K.^ ] 7.5.G K H H V m s 2 : ].-X+X*X+X*X+X*X+X*X+X*X+X*X",
"+X$X$X$X+X$X$X$X+X$X$X$X*X(.D.O.1.a.d.a.s.s.i.N.z.v.W.!.!.Q.Q.Q.R.P.| Y Y T P J H H V c 2 ; (.$X*X+X*X+X*X+X*X+X*X+X*X+X",
"$X+X$X+X$X+X$X+X$X+X$X$X@X~.L...q.d.d.a.s.s.s.u.k.b.E.R.T.!.Q.R.P.:.~ D L R P J J V V c 2 O A.@X$X$X+X$X+X$X+X$X+X$X+X$X",
"$X$X$X$X$X$X$X$X$X$X$X$XoXp L...q.d.d.d.s.s.s.q.q.u.p.p.V.P.B.-.| ^ N B T R P J H V V v 2 5 u oX$X$X$X$X$X$X$X$X$X$X$X$X",
"$X$X$X$X+X$X+X$X@X&X@X&XXXu G.@.w.d.d.d.s.s.s.e.<.4.3.r.8.0.[ W R G B N T R P J H H V v 3 6 y oX*X$X$X+X$X+X$X+X$X$X$X$X",
"$X$X+X$X$X$X$X$X@X&X&X&XXXu G.X.w.d.d.a.s.s.s.e.3.1.3.e.7.6.W [ [ ] C ! T R P J H V V v 3 , y oX*X+X$X$X$X$X$X$X$X+X$X$X",
"$X$X$X+X$X+X$X$X&X&X&X&XoXp G.X.q.d.d.d.a.s.a.t.v.I.I.v.9.5.[ } -.-.&.! T R P J H V V v 2 , u OX$X$X$X$X$X$X+X$X+X$X$X+X",
"+X$X$X$X$X$X+X$X@X&X@X&X@X~.Z.X.q.d.d.a.s.s.s.e.h.Y.E.E.V.j.] ] -.-.&.Q R T P J H V V v 2 O ~.@X$X$X$X+X$X$X$X$X+X$X$X+X",
"$X$X$X+X$X$X+X$X&X+X&X+X-X(.r  .1.a.d.d.a.a.f.y.3.2.n.V.R.P.z.] P K Q G R R P J H H V c 4 ; (.*X+X*X+X*X+X$X$X$X$X$X+X$X",
"+X$X$X$X$X$X$X+X+X&X+X&X-X].w h A w.d.a.a.t.u.q.,.Y 7.k.P.P.l.{ K L ( U L G P J H H v b 4 : ].-X$X+X*X+X$X$X$X+X$X+X+X$X",
"$X+X$X+X$X+X$X$X&X+X&X+X&X.Xe 5 l q.a.d.a.h.h.g.[ T _ ,.` ` ' ( G [ [ U D B D J J V C 3 6 e .X*X+X*X+X*X+X$X+X$X+X$X$X$X",
"$X$X$X$X$X$X+X$X&X&X+X&X$X$X^.- a A f.d.f.m.v.t.8.( _ 7.7.7.5.5.5._ _ T H m m J I ^ +.3 - ^.%X*X*X+X*X+X$X$X$X$X$X$X$X+X",
"$X+X$X$X$X+X$X$X*X+X*X+X*X-X|.0 < l <.a.f.x.h.9.5.( ,.y.r.r.8.8.6._ ( T K D K P *.>.k 1 0 |.-X$X+X*X$X$X+X$X+X$X+X$X$X*X",
"+X$X+X$X$X$X+X$X+X*X+X*X+X+XoX^.= 4 Z w.s.a.t.,._ / ,.r.r.8.8.6.5.Y ( T G P R | K.o.3 ; ^.oX*X$X*X+X$X+X$X$X*X$X$X$X$X+X",
"&X+X&X+X$X$X$X$X*X+X*X+X-X*X-X}.e X a ) t.s.s.<.) ) 7.r.r.8.8.8.6.5.U G T R | K.J.3 , 9 }.-X+X$X+X$X+X*X+X*X+X$X+X$X+X*X",
"+X&X+X&X+X$X+X$X+X*X+X*X+X+X$X$X_.q , d A w.s.a.y.e.y.r.r.8.8.8.6.5.E R R | K.J.k < q _.*X+X$X$X*X+X-X+X*X+X*X+X$X$X$X+X",
"=X+X*X+X&X$X$X+X*X+X*X+X+X-X+X-XoX(.$ < a Z 3.t.y.y.y.r.r.r.8.6.6.6.6.E | K.O.k < * (.OX$X$X+X$X+X*X+X*X+X*X+X*X+X$X$X*X",
"@X*X+X*X+X$X$X$X+X*X+X*X+X+X;X+X-XoX(.* , s l ) q.y.r.r.r.8.8.8.6.5.E ] &. .3 , * (.oX*X$X$X$X+X*X+X*X+X*X+X*X+X$X$X$X+X",
"=X+X=X+X=X+X$X+X*X+X*X+X-X+X+X&X;X&XoX`.8 o 2 d l Z ) 7.7.7.0.5.[ ! z d s 4 o 8 `.oX*X%X+X$X+X*X+X*X+X*X+X*X+X*X+X$X+X$X",
"@X*X+X$X+X$X$X$X+X*X+X*X*X+X&X+X&X;X&XoX{.i $ X 3 s d d l l l d d a s 3 + $ i {.@X*X*X%X$X$X$X+X*X+X*X+X*X+X*X+X$X$X$X+X",
"=X+X&X+X&X+X*X+X$X+X*X+X*X$X+X*X+X*X+X*X$XXX'.p % & + 1 3 3 3 3 1 X . % i ].XX$X$X$X$X$X$X$X$X$XOX-X+X*X+X*X+X*X+X$X+X-X",
"OX=X+X=X+X$X+X=X+X*X+X*X+X$X*X+X$X+X*X+X$X$X+XXX[.^.9 # @     @ # 9 ^.].XX-X$XOX$X$X$XOX$X+X$X+X-X+X-XOX-X@X-XOX*X+X-XOX"
};
