/* XPM */
static char *ef285c196a4f41df957be2d7c0775ee2Wgdfbe0KMDd4FdJ7[] = {
/* columns rows colors chars-per-pixel */
"60 60 199 2 ",
"   c #280F0A",
".  c #26130D",
"X  c #2D140D",
"o  c #2E190E",
"O  c #2E1207",
"+  c #34160E",
"@  c #3A190E",
"#  c #2B1712",
"$  c #271B14",
"%  c #2C1C15",
"&  c #2D1D19",
"*  c #321713",
"=  c #341B14",
"-  c #3B1E14",
";  c #341E1A",
":  c #3A1E19",
">  c #2D221B",
",  c #332016",
"<  c #3D2117",
"1  c #33231C",
"2  c #3C241B",
"3  c #3C281F",
"4  c #2F2420",
"5  c #342521",
"6  c #3A2622",
"7  c #352A23",
"8  c #3B2B24",
"9  c #3D2D2A",
"0  c #3D332C",
"q  c #3A3027",
"w  c #431D15",
"e  c #491E16",
"r  c #421F18",
"t  c #422116",
"y  c #4B2316",
"u  c #44251B",
"i  c #4B251C",
"p  c #44291E",
"a  c #4B2A1E",
"s  c #53261C",
"d  c #532B1D",
"f  c #5B2C1D",
"g  c #5A2618",
"h  c #51301F",
"j  c #432621",
"k  c #4B2720",
"l  c #432C24",
"z  c #4C2C22",
"x  c #432E29",
"c  c #4C2D29",
"v  c #542721",
"b  c #532C22",
"n  c #5A2D22",
"m  c #542E29",
"M  c #5C2F28",
"N  c #443226",
"B  c #4C3125",
"V  c #44332D",
"C  c #4B332C",
"Z  c #543125",
"A  c #5D3324",
"S  c #54342A",
"D  c #5B352B",
"F  c #52392C",
"G  c #5C392D",
"H  c #453331",
"J  c #493534",
"K  c #443932",
"L  c #4C3A34",
"P  c #4E3C39",
"I  c #4B3738",
"U  c #523531",
"Y  c #533C34",
"T  c #5B3C32",
"R  c #543D3A",
"E  c #5A3D38",
"W  c #5A3731",
"Q  c #632F21",
"!  c #623325",
"~  c #693827",
"^  c #63352A",
"/  c #683728",
"(  c #643A2B",
")  c #6A3C2C",
"_  c #603A27",
"`  c #633B32",
"'  c #6D3E32",
"]  c #713D30",
"[  c #4E413A",
"{  c #5F4136",
"}  c #54433D",
"|  c #5C423A",
" . c #574136",
".. c #6A402E",
"X. c #634134",
"o. c #6C4233",
"O. c #62443C",
"+. c #6B473D",
"@. c #724334",
"#. c #73453A",
"$. c #744B3B",
"%. c #7A493A",
"&. c #554240",
"*. c #5B4A44",
"=. c #5E4642",
"-. c #5E504F",
";. c #5D5151",
":. c #644A4B",
">. c #744D42",
",. c #61534F",
"<. c #6B544F",
"1. c #645552",
"2. c #675958",
"3. c #6B5D5B",
"4. c #6B5855",
"5. c #73635C",
"6. c #6F6463",
"7. c #726361",
"8. c #7A6D6A",
"9. c #79716F",
"0. c #7D7372",
"q. c #81503F",
"w. c #8B5A4A",
"e. c #815041",
"r. c #866F69",
"t. c #837775",
"y. c #807876",
"u. c #87736A",
"i. c #8C817D",
"p. c #9A827E",
"a. c #8C8482",
"s. c #98908E",
"d. c #9A8B88",
"f. c #A59895",
"g. c #A59389",
"h. c #AAA09F",
"j. c #B8AAA7",
"k. c #BAB0A7",
"l. c #C5B6B2",
"z. c #C7BDB4",
"x. c #DFC9BE",
"c. c #D2C4C3",
"v. c #DCCAC5",
"b. c #DBCDCB",
"n. c #D9C9C4",
"m. c #D9D1CF",
"M. c #DACED0",
"N. c #D6D5D1",
"B. c #DDD3D2",
"V. c #DBD9D6",
"C. c #DDDDDD",
"Z. c #D8D6DB",
"A. c #E8D2C7",
"S. c #E4D4CD",
"D. c #E9D6CD",
"F. c #E9D4CA",
"G. c #E3D5D4",
"H. c #E9D6D1",
"J. c #E5DBD5",
"K. c #EAD9D3",
"L. c #E3DDDC",
"P. c #E9DFDD",
"I. c #F4DFDA",
"U. c #DFE1DE",
"Y. c #E3E2DE",
"T. c #EBE2DE",
"R. c #DDDEE1",
"E. c #E2DFE0",
"W. c #DEE1E1",
"Q. c #DDE6E8",
"!. c #DEE8EA",
"~. c #E5E5E5",
"^. c #EAE5E5",
"/. c #E6E9E5",
"(. c #EBE9E6",
"). c #E5E5EA",
"_. c #EAE7EA",
"`. c #E6E9E8",
"'. c #EBEAEB",
"]. c #F2E6E3",
"[. c #F2E9E5",
"{. c #FCECE6",
"}. c #F6ECEB",
"|. c #F2ECEC",
" X c #FAEEEC",
".X c #EEF1EF",
"XX c #F4F1ED",
"oX c #FDF2ED",
"OX c #EEEFF1",
"+X c #ECEBF1",
"@X c #E7EAF1",
"#X c #F5EFF1",
"$X c #F9EFF0",
"%X c #ECF1F4",
"&X c #F3F2F3",
"*X c #FCF5F3",
"=X c #FFFAF6",
"-X c #F9F8F6",
";X c #FFFEFF",
/* pixels */
"~.~.).~.~.~.~.~.~.~.).~.~.~.~.~.'.Y.Y.^.`.~.~.`.W.~.~.+X).Q.).%X!.Q.!.!.).@X+XR.).E.@XE./.Y.Y./././.~.~.`.~.`.~.~.~.~.'.",
"~.~.~.~.~.~.~.~.~.~.~.'.C.'.~.~.~.`.~.L.Y.'.`.U.'.W.~.C..X`.`.C.R.).@X@X@X).@X@X).@XE.+XU./.U./.Y./.`.~.~.~.).^.~.~.~.C.",
"~.~.~.~.~.~.~.~.`.~.'.C.'.~.'.~.Y.Y.`.XX~.V.~.XXV.XX'.&XV.'.~.).+X_.Z.E.)._.).@X@XE.+XR..XU.`.~./././.).~.^.`.~.^.'.).'.",
"~.~.~.~.~.~.`.~.~.'.C.&XC.'.C.~.`.`.~.V.~. X`.V.'.Y.^.N. XP.}.^.E.E.].}.%X_.R.E.E.@XE.+XV.'.Y.~./././.~.~.`.~.~.`.`.~.~.",
"~.~.~.`.~.~.~.~.~.Y.'.C.'.C.'.~.`.Y.Y.Y.Y.Y.^.[.^.}.].*XG.B.n.].].{.].E.P.L./.&X).R.'.C..XW.+X~.~.^.~.~.`.~.`.~.C.~.~.~.",
"~.~.~.~.~.~.~.).~.).C.'.C.'.~.~.U././.(.(./.^.].S.d.4.J R x R E <.p.n.{.].Y.~.U.).@XR.`.R.'.E._.`.~.`._.~.^.`.~.'.'.~.~.",
"~.~.~.~.~.~.~.~.~.~.'.~.'.~.`.~./..X/.N.T.XXl.5.6 #   6 < 2 - c r + S r.j.].-XN.~.Y.'.~.`.Q._.E.~.~.~.~.~.'.~._.~.~.~.~.",
"~.~.~.~.~.^.~.~.~.~.~.~.~.~.~.^.'.N.Y.=XT.i.0 . 2 : j z m u u b S k D p * 5.n./.Y./.~.`.)._.E.@X_.`.`.~.~.~.~.~.~.~.~.~.",
").~.~.~.'.~.~.~.~.~.~.'.~.~.C.`.`.L.(.J.*.6 l l j r t b b a i d e s ` ` u X } x.oXL.^.#XE._.+X_.~.~.~.~.~.~.~.~._.~.~.~.",
"~.`.L.'.C.'.~.~.~.~.'.C.`.~.'.~.T.J.].[ J R * j k e i m A d s f s Q ' ` T z o 0 k.oX~.M.%X_.E._.).~.~.~.~.~.~.~.~.~.~.`.",
"~.~.'.C.&XU.'.~.C.&XR.~.E.&XC.^.T.{.5.X L : k r k i s ^ _ f d ! f g ( A b D B z L b.].E.+X#XZ.+X).~.~.~.~.~.~.~.~.~.~.~.",
"~.'.C.OXC.'.C.~.~.~.OXV.-XC.~.Y.{.g.% C z b w M M s Q ) ) f f ! f g ] %.( A T T o <. XP.#XC.'.).).~.~.~.~.~.`.~.~.~.~.'.",
"~.C.'.C.&XC.'.~.W.'.C.|.~.'.C.XXv.p p p k ` e n Q f ! ] o.! A ) ~ f @.w.@.! ^ M S l f.oXb.'.'.R.~.~.~.~.~.~.~.~.'.'.'.~.",
"~.'.W.'.C.'.~.).'.C.'.C.'.C..X Xu.u < a ` M ` g ^ Q ! @.@.! ! ..~ ~ @.q.' / #.^ G z <.F. XC.'.Q.~.~.~.~.~.~.).~.~.~.~.~.",
"~.~.`.C.'.~.'.~.'.~.C.'.Z.'.'.N.F a t Z ` ' s ] ] Q ! @.@.~ ! ..Q @.q.w.%./ ' n e O.z l.oXY.U.'.~.~.~.~.~.~.~.~.~.~.R.~.",
"~.~.~.~.~.~.~.~.~.~.'.`.C.(.~.j.= d a A ' ' Q ) ] Q ! @.$._ G o.( ) ^ $.#.! ' M M W c 8.*XY.Q./.`.~.~.~.~.~.~.~.~.~.~.'.",
"^.~.^.~.~.~.Y./.Y.~./.~.^.Y.*Xt.= m y ! ) @./ ~ ~ Q ^ #.$.X.T ` T G B F T T T B j E j 4.P.|.U.OX`.~.~.~.~.~.~.~.~.~.C.~.",
").^.).^.`.`./.~././.T.T.^.Y.}.7.t D v ^ ' @./ ) ] ! ( >.>.` U U U E C [ [ F L N : 8 9 I T.Y.~.V.~.~.~.~.~.~.~.~.'.'.'.'.",
"~.^.~.~.~.~././.`./.Y./.[.^.].1.u ` v ` ' @.( ) @.( ( +.+.S c c x C x V V 8 l 3 x j H x J.(.&XU.~.~.~.).~.~.~.~.C.C.C.~.",
"_.~.^.~.`.^.~././.U.Y.Y.[.^.(.,.j W s ^ o.@.) o.@.! Z D U c l V x V V I L K L C x I 6 5 h.XX/.Q.~.~.~.^.~.~.`.~.'.'.'.'.",
"~._.~.~.`.~./.~./.~.Y.Y./.^.[.1.i D s n ^ ' ) o.o.Z a j l 8 x J 5 5 7 K K 0 L J J &.9 7 y._.U././.~.~.~.).~.~.~.~.~.~.U.",
"^.~.~._.~.~.~./././.(.Y.^.T.].4.k W i n D ( ! G G a t p x x 0 V 0 0 0 &.[ [ } } R &.&.9 y._.U..X~.~.~.~.~.~.~.~.`._.).~.",
"_.~.^.~.`.~././././.(.Y.T.Y.[.,.k ` i D ^ ( m Z F a < 3 8 8 7 9 4 4 4 0 0 0 H V V x P 5 9.'.~.U./.~.~.~.~.~.~.~.`.^.`.^.",
"~.^.~._.~.~././.Y./.(.Y.^.^.[.,.k ` b D ( T d Z F z 1 , 3 1 > 5 4 4 > q 0 q 0 0 H 6 9 & 6.-X~.W.~.).~.~.~.~.~.~.~.`.~.~.",
"~.^.~._.~.~.~.~./.Y./.Y./.T.[.,.u d b Z G A a a B t 2 3 3 > > 8 & 5 7 7 q 7 3 q ; J 4 9 f.~.`./.~.~.~.~.~.~.~.~.~.~.~.~.",
").E._.E.'.E.`.~./.`.Y.(.Y.(.^.1.< y i i h a u p u p N F C 3 > 1 1 7 8 6 5 > % % ; 9 x 9 c.~..X~./.~.~.~./.~.~.~.~.~.~.~.",
"~.'.C.+XU.'.U././.U.[.V.}.Y.}.,.2 u t t a a u y t p C O.| N ; = 3 3 3 1 1 , % % ; : 6 H Y.`.).~.~.~.~.).~.~.~.~.~.~.~.~.",
"^.E.'.L..XU.(.Y.Y.(.U.(.J.(.T.1.u u w t k a u p p a S { { B t t 2 < < 3 1 2 2 , ; j ; H G.|.R.'.~.~.~.~.~.~.~.).'.'.).~.",
"~.'.C.|.V.'.~.`./.U..XV.XXL.}.-.< < t t a z u y a a b G G b a Z z a a z p 3 u : j U x I G.|.E.'.~.~.~.~.~.~.~.~.~.U.~.~.",
"_.E.'.C.OXC.`.~.~.(.Y./.J.(.^.1.< < < u B Z a a d s b G _ A f A Z a Z F a j z r r U I J G.^._.).~.~.).~.~.~.~./.^.`.~.~.",
"~._.Y.'.U.'.U././.Y.(.J.(.Y.[.1.2 2 < u S S b z d a A ' ) Q f ! f d G X.Z B W k j m U R b.[._.W.`.~.~.~.~.~.~.).~.).~.~.",
"^.~.~.~.`.~./.Y.~.`./.Y.^.^.^.1.< < - t m Z z d m A ! ' ] ! Q ! ! h ..o.A Z W k v m j :.c.$X~.`.~.~.~.~.~.~.~.~.~.~.~.~.",
"~.^.^.).~.~././.`.~.).~.^.^.[.;.; 6 = j m c m b M n ^ ' ] ^ Q ^ Q A o.$..._ _ f d _ z U H.[.~.~.`.~.^.~.~._.'.~.~.~.~.'.",
"~.E.~.~.~.).~.Q.`.W.^.^.^.^.|.;.; l r j c m m v M M / >.#./ Q ` M ! ..$.~ ...._ f ..m E H.[./.Y.~.~.~.`.`.~.~.~.~.~.~.~.",
"^.~.^.E.~.~.~./.`.~.~.~._.E._.;.% l u : k k m v ^ v ^ ' ' ^ Q ) _ A o.$...~ @...A o.Z { K.[.^./.`.~.`.~.~.`.^.`.`.`.~.).",
"~.~.).^.~.~.~.~.`.~.~.~.E.]._.-.# u : : r j v e M v M ^ ^ n n ! ! _ @.$.....@...! #.D | D.[.Y.Y.^.~.~.~.~.~.~.~.~.~.~.~.",
"E.^.^.).~.~./.~._.^._._._.|.|.;.; 2 - < k r k k M v v ^ ^ v s ! ! f @.$.) _ @...! $. .{ D.[.T./.~./.~.^.~.'.`.~.~.~.~.~.",
"~.).E.~.~.~.~.~._.E._.E.].E.|.;.; 2 @ < k r e v M v s M M v s m f f ..$._ ) @..._ $.G O.K.[././.~.`.~.`.~.~.~.~.'.^.`.~.",
"^.^.).~.~.~.~.~.`.).E._._._.|.:.* < - < j k k e m w e v b i e v d d _ ..! ! ....f $._ { D.[././.~.^.).~.~.~.`.~.~.~.E.~.",
").E.~.^.~.~.).~.).~._.E.].E._.;.; z < t k m m i v w w k b r e z y y _ ..f h _ f f o. .O.D.T.Y././.~.`.~.~.'.~.).~.~.~.'.",
").~.^.~.`.~./.~.`.~.~.~.^._._.1.; p u a Z D i i e w w a k u r u t y h A h d d h d S S E G.}.Y.Y.~.~.~.~.~.~./.~.~.~.~.~.",
"~._.E.'.C.'.W.`.`.W._.L.|.E.}.1.< p a u S Z i i k w w a z t - u @ @ h h y y d h y G z | H./..XY./.~.~.~.~.~.~.~.~.~.~.'.",
"^.E.'.L.'.U.`.~.`.'.C.'.E._.E.3.< a y a D Z y i k w : k z < - u < < h F h t y a a a F E S.XXU./.~.~.~.~.~.~.~.~.~.`.~.~.",
"~.'.C.&XC.'.U.`.`.U.'.C.$XE.$X3.t B z d D Z a a k r r l c u 2 3 l u N  .B p p t t G j =.Y.Y./.U./.~.~.~.).~.~.~.~.~.~.^.",
"^.E.'.C.OXC.'.~.E.).E.|.E.|.].3.< h h h G D a a z t j c C j p l 3 % 3 N N B p < k j R R S.*XU.`.~.).~.~.~.~.~.~.~.~.~.~.",
"~._.E.'.V.'.W.`._.E.|.E.|.E.$X3.- h h h ( D a z z t u c C 6 3 7 3 > > 8 8 l 3 < * c : R H.Y..X/./.~.~.~.~.~.~.~.~.~.~.~.",
").E._.E.'.~.`.~.).).E._.E._.|.7.o a h h T G k m z u 3 c N 3 , 1 q > 7 q 6 1 ; * @ = j H b.&XW.).~.~.~.~.~.~.~.~.'.).~.~.",
"~.^.~._.~.).~.~.~.~._.E._.E.#X7.O y d Z G G z Z z t 3 l x > % % > > > 7 > % ; ; : j ; I V.&X`.Q.~.~.~.~.~.~.~.~.~.~.~.'.",
"~._.~.^.).~.~.`.^.).^.^.^.~.|.6.* a u Z X.F B a B p 3 1 > > > 4 > > > 4 7 7 7 7 ; x 5 H s.-X`.Q././.~.~.~.~.~.~.~.~.~.~.",
"~.~.`.~.`.~.~.^.^.~.^.)._.E.|.6.* j < z T S B a 3 < , , > > 4 7 $ $ > > 4 > > > 1 x ; 5 9.~.W.W.~.~.~.~.~.~.~.`.'.~.).`.",
"~.~.~.~.^.).^.~._.~.^.~._.^.|.6.* a - u Z B B p z 3 3 7 3 q q 0 7 7 q 0 q q q q 6 H H 9 9.XX).'./.~.~.~.~.~.~.~.~.~.~.~.",
"_.~.'.~.~.~.~._._.E.^.^.^.^.#X6.* z t t Z Z z p p < < , 1 1 > 7 $ $ $ > > > > > % 5 9 5 6.^.U.Q.~.~.~.~.~.~.~.~.'.~.~.~.",
"~.~.~._.`.^.).^.^.).^.)._.~.'.6.* Z y p Z Z a p B < = , 1 & % > 1 1 > q q 7 7 7 8 l 6 4 0.(.`.'.~.~.~.~.~.~.~.~._.`.~.~.",
"'.`.~.~.~.~.^.~.^.~.^.^.^.^.|.6.= a u a S a p h B u < < 3 1 , 3 > > > 1 > > , , ; 1 ; 6 f.~.~.W.~.~.~.~.~.~.).~.C.~.~.~.",
"~.~.`.~.`.~.).~.).~.^.^._.^.#X6.= u < a S a a Z z < - l l , % ; 3 1 1 1 > > > % ; j x &.b.|.'.~.~.~.~.~.~.~.~.~.`.'.'.~.",
"~.~.~.^.~.~.`.^.^.~.^.^.^.~.|.6.* t @ a S y a F S a p C F l , ; 7 5 1 3 > , $ o # ; & J G.Y.'.~.~.~.~.~.`.~.~.~.~.~.~.~.",
"~.~.^.~.~.~.~._.~.~.^.^.#XZ.;X6.* p = u p B z B S t B Y R N l z x 6 7 6 q > 3 , 1 N x I K.[.E.'.).'.~.~.).~.'.~.~.~.~.'.",
").~.`.~.~.'.E.~.~._.^.Z._.E.|.;.. 2 X < < u t t N < p C F 7 8 7 6 & 1 > 1 o > % l x J I E.(.+X~.~.'.~.`.~.~.'.~.'.'.~.~.",
"'.C.'.~.~.~.~.^.E._.^.E.^.#X^.a.9 Y N Y Y Y L F  .C  . .:.F  .L L K [ L [ V L H I R &.1.b.L.~.W.~.'.U.~.~.~.'.~.~.~.~.~.",
"'.~.'.U._.~.~.~.~.E.^.'.^.|.~.B.b.K.v.D.A.D.A.A.K.x.D.A.K.v.G.v.K.b.K.S.J.B.H.D.F.I.n.K.[.*XC.).C.'.~.~.~.~.'.~.~.~.'.C."
};
