/* XPM */
static char *_c386a11c15e4b63b1c2f64667b9dbd6zalJhMRrSRsiIAg6[] = {
/* columns rows colors chars-per-pixel */
"59 60 234 2 ",
"   c #020202",
".  c #080807",
"X  c #0C0C0B",
"o  c #11100D",
"O  c #181614",
"+  c #16151A",
"@  c #18171B",
"#  c #1C1C1B",
"$  c #221E1C",
"%  c #191E26",
"&  c #0D1834",
"*  c #19202E",
"=  c #1C2A34",
"-  c #282626",
";  c #2C2C2C",
":  c #332C26",
">  c #342F2A",
",  c #37322B",
"<  c #3C342E",
"1  c #292D33",
"2  c #273234",
"3  c #383533",
"4  c #3C3632",
"5  c #3C3B3B",
"6  c #51381B",
"7  c #463A2B",
"8  c #433B34",
"9  c #493F36",
"0  c #433D3A",
"q  c #674119",
"w  c #4A4037",
"e  c #464338",
"r  c #4D443B",
"t  c #574D33",
"y  c #51463D",
"u  c #564839",
"i  c #54493E",
"p  c #6F553A",
"a  c #6C693D",
"s  c #061347",
"d  c #041757",
"f  c #182641",
"g  c #083856",
"h  c #343A45",
"j  c #02176B",
"k  c #011770",
"l  c #021B7B",
"z  c #033B69",
"x  c #033175",
"c  c #134655",
"v  c #064F71",
"b  c #494747",
"n  c #564B41",
"m  c #5A4D43",
"M  c #544E48",
"N  c #5E5145",
"B  c #5C554B",
"V  c #4E4E51",
"C  c #565655",
"Z  c #5C5C5D",
"A  c #615345",
"S  c #6D5943",
"D  c #64564A",
"F  c #65584D",
"G  c #6A5B4E",
"H  c #645D55",
"J  c #6D5E51",
"K  c #696547",
"L  c #76684A",
"P  c #686257",
"I  c #736355",
"U  c #766759",
"Y  c #7B6A5B",
"T  c #7D7955",
"R  c #646464",
"E  c #6C6967",
"W  c #6B6B6B",
"Q  c #716D69",
"!  c #797568",
"~  c #737374",
"^  c #7B7873",
"/  c #7B7B7C",
"(  c #885A28",
")  c #985C20",
"_  c #976228",
"`  c #847F3C",
"'  c #876947",
"]  c #867248",
"[  c #9B7148",
"{  c #816F5E",
"}  c #85795C",
"|  c #AE7C4F",
" . c #A57C52",
".. c #816F60",
"X. c #847263",
"o. c #897667",
"O. c #897869",
"+. c #8C796A",
"@. c #917E6D",
"#. c #857E76",
"$. c #908C4E",
"%. c #958656",
"&. c #A8855A",
"*. c #B38A5B",
"=. c #A09A5B",
"-. c #B5AE52",
";. c #8B8863",
":. c #96856D",
">. c #858379",
",. c #958272",
"<. c #9B8574",
"1. c #9B8976",
"2. c #AC926F",
"3. c #B89566",
"4. c #A48A74",
"5. c #A28C7A",
"6. c #A8937C",
"7. c #AFAA73",
"8. c #B6AB75",
"9. c #C9945C",
"0. c #C3BE57",
"q. c #C39562",
"w. c #D79F61",
"e. c #C9A679",
"r. c #D8A870",
"t. c #EDB16F",
"y. c #F4B672",
"u. c #F5BA77",
"i. c #CAC456",
"p. c #CFCB6C",
"a. c #F8C27C",
"s. c #011D89",
"d. c #012489",
"f. c #023689",
"g. c #012E93",
"h. c #013FA0",
"j. c #04528D",
"k. c #01499D",
"l. c #06728F",
"z. c #014CA6",
"x. c #0054AA",
"c. c #005CB1",
"v. c #0472A6",
"b. c #0067B7",
"n. c #0275BA",
"m. c #017BC2",
"M. c #0389AD",
"N. c #038CB6",
"B. c #0183C7",
"V. c #018CCB",
"C. c #0296CA",
"Z. c #019BD3",
"A. c #01A6D9",
"S. c #02B2DC",
"D. c #01B4E1",
"F. c #02BBE6",
"G. c #858584",
"H. c #8C8C8C",
"J. c #948D89",
"K. c #989287",
"L. c #959494",
"P. c #999796",
"I. c #9C9C9C",
"U. c #AA9583",
"Y. c #A69C93",
"T. c #B7A78C",
"R. c #AFA897",
"E. c #A5A19D",
"W. c #A3A3A3",
"Q. c #A8A7A6",
"!. c #ACABAC",
"~. c #B1ACA6",
"^. c #B8B3AC",
"/. c #B5B5B5",
"(. c #BBBBBB",
"). c #CFB48F",
"_. c #E5BD8B",
"`. c #C6BFB8",
"'. c #D3D08E",
"]. c #E7C78A",
"[. c #FDCB84",
"{. c #FBC788",
"}. c #FCD086",
"|. c #FED48B",
" X c #E3C595",
".X c #FECD96",
"XX c #FBD594",
"oX c #FFDA94",
"OX c #FEDC9B",
"+X c #D3CCAB",
"@X c #EBCDA5",
"#X c #FFDFA3",
"$X c #F9D8A8",
"%X c #E9DAB2",
"&X c #F8DCB5",
"*X c #E6E4AB",
"=X c #FEE2AB",
"-X c #E8E7B9",
";X c #FEE4B4",
":X c #FBE6BC",
">X c #FEE6BC",
",X c #BFBFC0",
"<X c #C3C3C4",
"1X c #CAC7C4",
"2X c #CCCCCD",
"3X c #D3CEC8",
"4X c #D2D1CF",
"5X c #D4D4D4",
"6X c #D8D7D5",
"7X c #DCDCDC",
"8X c #E1DEDA",
"9X c #ECEAC4",
"0X c #FFEAC3",
"qX c #F1F0CB",
"wX c #E2E1DD",
"eX c #DFDFE0",
"rX c #DFE0E1",
"tX c #E3E4E4",
"yX c #E8E8E8",
"uX c #EDEDED",
"iX c #EEEEEE",
"pX c #F0F0F0",
"aX c #F1F1F0",
"sX c #F2F2F1",
"dX c #F2F2F2",
"fX c #F4F4F4",
"gX c gray96",
"hX c #F6F6F5",
"jX c #F6F6F6",
"kX c gray97",
"lX c #F8F8F7",
"zX c #F9F9F9",
"xX c #FAFAFA",
"cX c #FDFDFD",
/* pixels */
"cXgXaXcXaXgXcXiXgXcXiXcXgXiXzXkXfXzXfXaXcXpXgXzXaXcXkX2XL.W C Z W I.5XaXkXzXiXkXzXiXzXzXiXkXzXiXzXkXaXcXfXfXzXfXgXcXaX",
"gXgXzXgXgXgXgXgXgXgXgXgXgXkXfXgXgXfXgXkXgXgXgXgXzX7XG.0 b D U I G y b W 1XkXkXkXgXkXfXgXkXfXfXzXgXgXgXgXgXgXfXgXgXfXgX",
"aXgXzXaXzXgXaXzXgXfXcXaXgXzXaXgXcXaXkXzXpXzXzXgX2XV r o.@.U.U.U.U.6.@.D 5 L.kXkXfXzXfXfXzXfXgXzXgXgXcXfXkXgXaXcXgXfXzX",
"cXgXaXcXaXgXcXaXkXzXiXzXkXfXcXgXaXcXgXfXiX4X5X,X0 M @.@.@.@.U.@.U.4.U.U.+.3 I.kXzXaXzXzXaXzXzXiXzXgXiXzXfXaXcXaXgXcXaX",
"aXzXzXaXzXzXaXzXgXfXzXfXgXzXfXgXcXtX!.W b 1 ; ; m +.@.@.@.5.5.@.J.5.U.U.U...5 1XgXlXfXaXzXgXfXzXfXgXcXfXgXcXaXkXgXaXzX",
"gXgXgXgXzXgXgXzXgXkXgXlXgXgXgXgX<XC @ + + @ + 0 ..o.+.+.@.@.@.@.<.<.@.U.U.U.D Z yXzXfXkXkXgXgXzXgXgXgXaXgXgXkXgXgXfXkX",
"cXgXgXzXaXgXzXaXgXzXpXzXlXaXzXQ.1 + + @ @ + $ J ..X.X.o.+.5.`.3X`.).U.@.@.U.@.r H.aXzXzXaXzXzXiXcXgXaXcXfXaXcXaXgXcXfX",
"aXgXzXaXzXgXaXcXgXfXzXfXkXzX!.- + + + @ @ @ 8 U { ......Y.wXgXgXgXgX3XU.5.@.5.X.5 1XkXaXzXgXaXcXfXaXzXiXcXzXiXcXgXaXkX",
"zXgXgXzXlXgXlXgXgXgXgXgXzX4X5 + @ @ @ @ @ $ m { I { { @.eXzXkXkXgXgXkX`.@.@.@.U.N Z yXkXgXkXgXfXgXgXfXgXfXfXkXfXfXkXgX",
"zXgXgXzXaXgXzXfXgXzXaXlXgX~ + @ @ @ @ @ @ : D J J J I Y.pX!.L.tX5XG.(.8X5.@.5.@.@.0 L.zXfXgXgXfXcXgXkXzXkXgXzXfXgXzXfX",
"pXgXzXpXlXlXaXzXgXgXcXgX2X1 + + @ @ @ @ : 9 D G J J I Y.7Xb ; !.H.- Z 6X@.@.@.@.@.Y 5 /.zXlXgXzXiX5X/.L.4XkXiXzXgXaXzX",
"zXgXgXzXgXgXlXgXgXgXaXcXI.@ @ + @ @ @ : 7 9 D D G J J @.7XG.R 5X<XR E.`.@.+.+.@.@.@.H 3 / Q.Q.H.Z 0 3 > Z uXcXgXfXzXfX",
"lXgXgXzXgXgXlXgXkXgXgXgXW + % + @ - 8 9 9 9 A A D G J J Y.yXiXpXaXyX5X@.X.X.o.+.@.@.@.H 4 4 3 8 y D U N b yXkXgXkXkXgX",
"aXlXzXaXzXlXyXaXiXiXfX7XV + @ $ 8 y y r 9 9 m A m N D D J 1XtX`.2X7XK.......X.X.+.+.+.U A F D G J J I 9 R fXiXcXkXaXzX",
"cXaXaXzXgX<XZ V V V V b % - 8 m G m m y 9 9 9 m m m N A D Y.^.P.E.~.+.I U ......X.X.o.Y m A A D D F N ; Q.gXcXiXfXcXaX",
"gXgXzXgXzXH.- 0 8 4 4 0 m J J J G m m i i 9 9 y y m m m m D D J J J I I I I Y Y ..X.X.Y u i m A N N > W iXkXfXgXgXgXkX",
"fXfXzXpXcX/.; J Y +.+.o.{ Y I I G D m m y 9 9 9 y y n n n n n m t F F I I I Y Y Y Y { U y y y u n : Z tXcXgXaXzXgXfXlX",
"zXfXfXcXfXeXb M U +.@.o.X.{ U I G G D m n n 9 8 7 < : - - - = 1 = 2 ; ; < 8 t K I Y Y I w w w 8 - W 7XzXaXaXcXaXgXzXfX",
"fXgXgXfXzXzXY.3 G +.@.@.o.! Y U J G D m y > - * f g z j.j.x.c.v.n.n.M.v.l.v c 2 4 u I A 8 4 - 3 G.iXcXaXzXzXaXzXkXfXzX",
"gXkXkXfXkXkXpX~ 4 I @.@.+.{ { Y I N 8 - & f l f.z.z.c.c.b.m.B.V.A.A.D.D.F.F.S.C.l.c 2 < : - Z (.fXgXgXkXgXlXkXgXgXgXlX",
"cXfXfXzXfXfXxXtX/ 3 F o.+.o.X.G 9 * s j l s.g.g.z.z.x.c.b.n.m.V.Z.Z.A.S.S.D.D.D.F.S.M.c 2 Q.iXgXzXgXaXcXgXaXcXaXfXzXfX",
"iXkXcXiXkXkXiXxXiX!.Z 0 0 5 4 = s d j k l l d.g.h.z.x.c.c.n.n.B.V.Z.A.A.S.S.D.S.S.F.F.M.Z iXgXzXaXgXzXaXzXkXaXcXgXaXzX",
"kXfXfXgXfXkXkXfXkXxXyX2X!.5 z f.k j j j j l s.s.g.k.z.x.c.b.n.m.m.m.V.V.C.Z.A.A.A.D.D.l.W lXgXgXkXgXfXzXgXgXzXaXkXgXfX",
"cXkXfXzXfXfXkXfXjXkXfXxXgXR j.z.k j k l s.s.j 1 h h g x k.c.b.b.m.m.m.B.V.V.C.Z.A.N.l.= L.zXzXaXzXgXfXzXfXaXcXgXgXzXgX",
"uXkXcXuXzXkXiXcXgXaXcXgXgX/ v z.s.s.s.s.s.j 1 Y @.<.o.H h g z z g g g g g g g g c C X.D (.kXaXcXfXfXcXiXzXzXaXcXgXaXgX",
"zXgXpXcXfXfXcXpXgXzXiXzXcXL.g x.l j j d s & F Y I U X.:.<.o.y $ : { 4.2.2.4.m 8 Y X.Y H ,XzXzXfXzXgXfXzXaXfXzXaXgXcXaX",
"kXkXgXfXkXgXfXgXfXkXgXgXkX(.% & - 7 0 p ' t 8 n A J I I Y X.<.<.Y D @.%X XY J X.U H y #.yXkXgXgXgXgXgXgXgXkXkXgXgXkXkX",
"iXkXcXiXkXkXpXcXfXfXcXfXgXiXP.7 9.t.y.y.u.t.&.t b e 0 r m G I Y @.,.r ).U H I N n C b tXcXaXaXcXfXgXzXfXzXgXaXzXgXiXcX",
"cXfXpXcXfXfXcXiXkXzXiXzXkXfXiXM [ t.y.y.y.u.{.2./.(.W./ H b e 0 m n I %XF M P Q ; H.I.cXiXzXkXaXcXgXaXcXaXgXcXaXkXcXaX",
"fXkXkXaXfXkXfXkXgXfXzXgXkX`.U L S ' w.y.y.a.|.2.5XkXzXzXgX5XR . b 8 T.;X@.H.yXtXR P.<XkXzXgXkXzXfXkXgXfXkXgXfXgXgXaXgX",
"fXfXzXfXkXfXfXkXgXfXkXfXfX^ e._.u.e.9.y.y.[.oXr.R.fXcXcXcX7X; # 5XQ.+X0X_.2XcXcXrX~ 5XzXzXfXfXzXaXgXzXaXzXgXaXzXgXgXgX",
"cXfXfXzXfXfXzXfXkXzXiXkXfX#.r.|.@.e.u.t.y.[.|.{.r.T.+X8XiXiXQ.L.^.T.@X&X@X).3X`.#.V aXzXiXzXzXiXcXkXfXzXfXaXcXfXkXzXgX",
"pXkXzXiXkXkXfXzXkXfXzXfXgXQ.2.OX].3.XXt.y.}.|.}.[.u.r.e.e.).).)._.&X;X@X@X$X_.).U.~ gXgXzXgXfXzXaXgXzXaXgXkXaXzXzXaXgX",
"fXkXkXkXgXkXgXgXgXfXgXkXkXeX! ].OXOXe.*.y.a.|.|.|.[.{.{.{.{._..X$X;X;X@X&X&X&X0X5.H.zXgXgXgXgXgXfXkXlXgXkXgXfXgXgXgXkX",
"zXfXfXzXfXfXzXfXkXcXiXzXzXaX/...].].K w w.a.}.|.|.oXOX.XoX). X=X$X;X;X;X:X:X0X0XO.I.zXzXaXgXkXgXzXgXaXcXgXaXcXaXgXcXfX",
"iXkXcXiXzXkXpXzXfXaXcXaXfXcXpX~.! U !.Q.t r.a.}.|.oXoXOXOXe. X=X=X;X;X;X:X:X0X:XF <XgXaXzXfXgXzXfXaXcXaXkXcXaXcXgXaXzX",
"zXgXfXgXfXgXkXfXgXlXaXlXkXfXzXlXtXtXgXfXI.p 9.a.|.oXoXOXOX=X#X#X=X=X;X;X:X:X0X1.R iXgXzXgXgXlXgXgXkXgXzXgXfXzXfXgXgXkX",
"zXkXfXcXfXfXgXfXgXlXfXlXlXaXlXlXgXzXgXfXzX(.P ] r.}.oXoXoXOX#X#X=X=X;X:X:X*X:.C 5XgXzXgXgXgXgXgXzXgXfXgXfXgXgXaXgXcXaX",
"iXkXzXiXcXkXiXcXgXaXcXgXgXzXiXgXcXiXzXzXaXxXtXL.I ' 3.].XXOX#X#X=X=X=X X8.H / 7XgXzXaXgXzXgXgXzXaXfXcXpXzXzXpXcXgXaXcX",
"cXfXfXzXaXfXcXpXgXzXaXlXlXaXzXlXfXzXgXgXzXgXlXxXrXQ.b 8 a L ] } } I r B H.2XiXgXxXaXlXzXgXlXzXaXcXgXaXzXfXfXzXfXgXzXaX",
"gXgXgXzXkXgXkXgXlXgXgXgXkXgXlXgXgXlXgXgXgXgXgXaXQ.T K p -.-.7.^.R.u q T yXlXgXgXkXgXkXgXkXgXzXgXgXgXgXgXgXkXgXgXkXgXgX",
"aXlXzXaXzXgXaXzXgXfXcXaXfXzXaXkXzXaXzXxXaXzXlX/.;.0.i.a -.*X-X+X#.L ( w /.gXcXgXgXzXaXgXzXgXaXzXfXkXcXpXkXgXaXcXgXaXzX",
"cXgXaXcXgXaXzXfXgXzXaXzXgXiXzXkXaXxXfXaXcXfX5X^ p.i.$.$.i.*XT.H o M ;.P G.zXpXgXzXpXgXzXaXlXzXaXzXgXaXcXfXgXcXfXkXcXfX",
"fXgXzXaXzXgXgXzXkXgXzXgXgXzXfXgXzXaXzXlXgXaXG.7.p.-.T i.'.=._ p b 1.9XY.P 1XcXgXgXzXgXgXgXfXgXzXfXkXzXaXgXkXaXgXgXaXkX",
"aXgXgXgXkXgXgXgXgXfXxXaXkXgXaXzXzXgXlXlXlX<X;.'.i.$.=.-.` ) ) %.+X9XqX+XT >.iXzXgXzXgXgXzXgXgXgXaXgXlXfXzXgXfXgXkXaXkX",
"cXgXaXcXaXgXzXfXgXxXaXzXgXgXxXgXaXxXfXaXzX>.8.p.i.a $._ ) a 6.-X-X-X9X%X;.6.H.<XQ.tXzXzXaXzXgXfXcXkXfXzXfXfXzXfXgXcXfX",
"aXgXcXaXgXkXaXcXkXaXzXgXgXzXfXgXzXaXlXzX6X! '.p.-.t ) ( ] ).*X-X-X-X-X-X;.'.Y D 3.K.6XgXzXgXaXxXfXaXzXfXgXzXpXzXgXfXzX",
"gXgXzXgXkXgXkXgXgXzXzXgXgXgXkXgXgXlXlXfXI.t %.` a 6 ( $.'.*X*X*X*X+X-X-X;.-.] ' r.w.#.aXzXkXgXkXkXgXkXgXkXkXkXgXkXgXgX",
"cXgXgXzXfXgXzXgXgXzXfXgXgXfXzXgXfXzXgXQ.S 3.&.*.3.' < a B K K K Z C P P e =.[ [ *.' Q gXaXzXlXpXzXlXfXzXgXfXzXfXfXzXfX",
"aXgXzXaXzXgXaXzXgXgXzXgXgXzXfXkXzXaXcXL.| {.{.[.|.q..           2 X 5 . . t  .3.%.0 2XaXcXfXgXzXaXgXzXpXlXzXfXzXgXiXzX",
"zXgXgXzXaXgXgXgXkXzXgXgXgXaXzXgXfXgXzXL.[ u.[.[.u.*.X . . . . X 3 # 5 X ; ^ &.*.< W.zXlXaXlXlXgXkXlXfXlXgXfXgXfXgXcXgX",
"zXgXgXgXgXgXzXgXgXkXaXgXkXfXlXkXaXcXkX<XA 9.r.9.| p E > n N N N r 3 ; P.5XtXP.! G.aXlXkXgXlXgXgXkXlXfXlXgXgXlXfXgXkXfX",
"aXgXzXpXzXgXaXzXkXfXzXfXgXzXaXgXzXfXzXzX`.Q G D H G.7X~ A A n E r y M 7XcXdXcXdXfXcXfXfXzXfXfXcXfXkXzXaXkXzXpXzXgXaXlX",
"zXgXaXcXgXgXzXfXgXzXfXgXgXfXzXkXfXzXfXfXzXtXwXyXyXzXkXE D A E 7XP P B <XlXlXdXlXzXaXgXzXpXzXgXpXgXgXfXzXgXfXzXfXkXzXfX",
"kXgXgXgXzXgXgXzXgXgXkXgXgXkXlXgXgXgXgXkXgXkXzXkXkXzX(.# @ O ; ~ # O O W dXlXfXhXgXgXgXfXlXkXfXgXgXgXgXgXgXkXkXgXkXfXgX",
"fXkXkXgXzXgXaXzXgXaXcXaXfXcXaXgXzXfXkXzXfXzXgXfXxXzX#.O : O o     $ O # G./.lXlXaXcXgXfXcXfXfXcXfXkXzXfXkXgXaXcXgXfXlX",
"zXgXaXcXaXgXcXfXgXzXaXzXgXaXkXgXyXgXyXtXyX7X7X7X2X5X/ G I m #     < y X   # Q.6X7X5XrXtXrXyXiXyXgXgXpXcXfXfXzXaXgXzXfX",
"fXgXzXaXzXkXaXlXgXfXgXaXyX7X4X<X(.!.!.Q.W.I.I.I.I.I.R m A b o     : 3     . ~ I.I.I.I.W.Q.!.!.(.,X2X7XtXpXgXgXlXgXfXlX",
"fXgXlXaXgXgXgXzXgXfXzXaXyXtX2X<X(.!.Q.Q.W.W.I.I.I.I.H.~ W W R Z Z R W Z Z E I.I.I.I.I.W.W.Q.!./.,X2X7XrXiXgXfXlXgXgXgX",
"zXzXaXcXfXgXzXaXgXzXiXcXlXaXzXfXyXfXtX7XtX6X5X5X1X4X5X<X2X1X<X2X1X<X2X<X<X5X1X2X6X2X7XtX7XyXiXyXgXgXpXzXgXgXzXpXkXzXfX"
};
