/* XPM */
static char *_778cfe5f0fa45b0cd274b65c925c4b6vUY0Wc1CTIJVPG91[] = {
/* columns rows colors chars-per-pixel */
"60 60 13 1 ",
"  c None",
". c black",
"X c #500000",
"o c #8F581F",
"O c #B02860",
"+ c #FF4070",
"@ c #FF706F",
"# c #DFA03F",
"$ c #20308F",
"% c #40809F",
"& c #80D8CF",
"* c #FFD0C0",
"= c #FFF8FF",
/* pixels */
"                 XXXOO+++##=====###+++OOXXX                 ",
"                 XXXOO+++##=====###+++OOXXX                 ",
"               XXOOO++................++OOOXX               ",
"               XXOOO++................++OOOXX               ",
"               XXOOO....................OOOXX               ",
"               XXOOO....................OOOXX               ",
"               XXOOO....................OOOXX               ",
"               XX..........................XX               ",
"               XX..........................XX               ",
"               XX.....=====@@@@@======.....XX               ",
"               XX.....=====@@@@@======.....XX               ",
"               XX.....=====@@@@@======.....XX               ",
"            @@@..@@@**===..*****...===**@@@..@@@            ",
"            @@@..@@@**===..*****...===**@@@..@@@            ",
"          @@ooo..*****===..*****...===*****..ooo@@          ",
"          @@ooo..*****===..*****...===*****..ooo@@          ",
"          @@ooo..*****===..*****...===*****..ooo@@          ",
"          @@ooo.....**@@@**********@@@**.....ooo@@          ",
"          @@ooo.....**@@@**********@@@**.....ooo@@          ",
"          @@ooo.....**@@@**********@@@**.....ooo@@          ",
"            @@@..***.....@@@@@@@@@@.....***..@@@            ",
"            @@@..***.....@@@@@@@@@@.....***..@@@            ",
"               oo***....................***oo               ",
"               oo***....................***oo               ",
"               oo***....................***oo               ",
"                 ooo**................**ooo                 ",
"                 ooo**................**ooo                 ",
"            oooooooooo@@@@@@@@@@@@@@@@oooooooooo            ",
"            oooooooooo@@@@@@@@@@@@@@@@oooooooooo            ",
"            oooooooooo@@@@@@@@@@@@@@@@oooooooooo            ",
"          oo=====oooooooooooooooooooooooooo=====oo          ",
"          oo=====oooooooooooooooooooooooooo=====oo          ",
"          oo=====ooo==ooo%%OOOOO%%%ooo==ooo=====oo          ",
"          oo=====ooo==ooo%%OOOOO%%%ooo==ooo=====oo          ",
"          oo=====ooo==ooo%%OOOOO%%%ooo==ooo=====oo          ",
"          oo=====ooo==ooo&&XXXXX&&&ooo==ooo=====oo          ",
"          oo=====ooo==ooo&&XXXXX&&&ooo==ooo=====oo          ",
"          oo===oo===oo&&&&&&&&&&&&&&&&oo===oo===oo          ",
"          oo===oo===oo&&&&&&&&&&&&&&&&oo===oo===oo          ",
"          oo===oo===oo&&&&&&&&&&&&&&&&oo===oo===oo          ",
"            oooooooo=====&&&&&&&&&&=====oooooooo            ",
"            oooooooo=====&&&&&&&&&&=====oooooooo            ",
"               $$$$$=====&&&&&&&&&&=====$$$$$               ",
"               $$$$$=====&&&&&&&&&&=====$$$$$               ",
"               $$$$$=====&&&&&&&&&&=====$$$$$               ",
"               $$%%%&&&&&&&&&&&&&&&&&&&&%%%$$               ",
"               $$%%%&&&&&&&&&&&&&&&&&&&&%%%$$               ",
"               $$%%%&&&&&&&&&&&&&&&&&&&&%%%$$               ",
"               $$%%%&&&&&&&&&&&&&&&&&&&&%%%$$               ",
"               $$%%%&&&&&&&&&&&&&&&&&&&&%%%$$               ",
"                 $$$%%&&&&&%%%%%&&&&&&%%$$$                 ",
"                 $$$%%&&&&&%%%%%&&&&&&%%$$$                 ",
"                 $$$%%%%%%%$$$$$%%%%%%%%$$$                 ",
"                 $$$%%%%%%%$$$$$%%%%%%%%$$$                 ",
"                 $$$%%%%%%%$$$$$%%%%%%%%$$$                 ",
"                    $$$$$$$$$$$$$$$$$$$$                    ",
"                    $$$$$$$$$$$$$$$$$$$$                    ",
"                 ...ooooooo.....oooooooo...                 ",
"                 ...ooooooo.....oooooooo...                 ",
"                 ...ooooooo.....oooooooo...                 "
};
