/* XPM */
static char *_9acecce26f1496fba86b19a58ae81ffnEHNYt6gIEosyk05[] = {
/* columns rows colors chars-per-pixel */
"60 60 81 1 ",
"  c #CF6FBE",
". c #D16BBF",
"X c #D06DBF",
"o c #D56CBE",
"O c #D477BB",
"+ c #D171BD",
"@ c #D273BC",
"# c #D670BD",
"$ c #D771BD",
"% c #D275BC",
"& c #D474BC",
"* c #D877BB",
"= c #DD76BA",
"- c #DD77BA",
"; c #DA72BC",
": c #D57ABA",
"> c #DC79B9",
", c #DE78B9",
"< c #D97DB8",
"1 c #DF7CB8",
"2 c #E27DB7",
"3 c #E27FB7",
"4 c #E07AB8",
"5 c #E27DB8",
"6 c #C457C7",
"7 c #C359C7",
"8 c #C459C6",
"9 c #C458C7",
"0 c #C55BC6",
"q c #C55CC5",
"w c #C75CC5",
"e c #C65EC5",
"r c #C052CA",
"t c #C154C9",
"y c #C256C8",
"u c #C356C8",
"i c #C961C3",
"p c #CD62C2",
"a c #CC62C3",
"s c #CB67C1",
"d c #CF65C1",
"f c #CD64C2",
"g c #CB60C4",
"h c #CE68C0",
"j c #D069C0",
"k c #D269C0",
"l c #DA83B6",
"z c #DF84B5",
"x c #DF85B5",
"c c #DC86B5",
"v c #DF8CB3",
"b c #DD88B4",
"n c #DE8AB4",
"m c #E496AF",
"M c #E996AE",
"N c #E99FAB",
"B c #E89BAD",
"V c #EA9AAD",
"C c #E382B5",
"Z c #E081B6",
"A c #E380B6",
"S c #E382B6",
"D c #E287B4",
"F c #E58AB3",
"G c #E48BB3",
"H c #E08EB2",
"J c #E78EB1",
"K c #E78FB1",
"L c #E588B4",
"P c #E290B1",
"I c #E591B0",
"U c #E793B0",
"Y c #EFAAA7",
"T c #EAA0AB",
"R c #EAA1AB",
"E c #EAA2AA",
"W c #ECA0AA",
"Q c #EDA5A9",
"! c #EDA7A8",
"~ c #EEA6A9",
"^ c #F0ACA7",
/* pixels */
"rrrrrrrrrrrrrrrrrrrrrrrrrrrrrrrrrrrrrrrrrrrrrrrrrrrrrrrrrrrr",
"rrrrrrrrrrrrrrrrrrrrrrrrrrrrrrrrrrrrrrrrrrrrrrrrrrrrrrrrrrrr",
"rrry78e7yyryyyu8686u66886666666666666666666689889e8eytty0iee",
"rryes  s8yy78aaaaaaaaaaaaaapappapppwaaapappaaadkk%hhittihh+%",
"rr7s%ll%dq77akooojkk;kko;kkjo.kkk#kjokokojjkk;.*lbl%sqys%lvn",
"rr8 lmml.87i.;,==4===5====5===55*,55,,,,=5===5,JPmUlsqahlUTT",
"rr8+lmmlde6ak55555555555255555555555A5555555552DPTmnheihnT^^",
"rr7s%ll%.86aj=55555555555555555555555555555555AAlvl%s7e%nW^^",
"rryejk sir7io=25555555555555555555555555555555,,:#hseye+nT^^",
"rryy68e7ry7a.=55555555555555555555555555555552,;hiqayre+nT^^",
"rrrr666868edo=55555555555555555555555555555555=#de7777a%HN^^",
"rry78aaapwj.;555555555555555555555555555555555,;haaaadh<HE^^",
"rruwakooooo;=5555555555555555555555555555555555=;#kk;k;xUQ^^",
"rr8ek;===4=5=55555555555555555555555555555555555,,===55FBQ^^",
"rryao=555555255555555555555555555555555555555555z55555AJBQ^^",
"rr6ao=555555555555555555555555555555555555555555555555AUVQ^^",
"rr6p.=555555555555555555555555555555555555555555555552AJV~^^",
"rrupj,555555555555555555555555555555555555555555555552CKV~^^",
"rrup;4555555555555555555555555555555555555555555555555CKV~^^",
"rrwwj=555555555555555555555555555555555555555555555555AJV~^^",
"rr6pk5555555555555555555555555555555555555555555555555CKV~^^",
"rrupk=555555555555555555555555555555555555555555555555CKV~^^",
"rr6po2555555555555555555555555555555555555555555555525AJV~^^",
"rrupk=555555555555555555555555555555555555555555555522AJV~^^",
"rrupk=555555555555555555555555555555555555555555555555CKV~^^",
"rr8pk5555555555555555555555555555555555555555555555555AKV~^^",
"rr6pk=555555555555555555555555555555555555555555555552CKV~^^",
"rrupk=555555555555555555555555555555555555555555555552AKV~^^",
"rr8p;5555555555555555555555555555555555555555555555555CKV~^^",
"rrupk5555555555555555555555555555555555555555555555555AKV~^^",
"rr6pj=555555555555555555555555555555555555555555555552CKV~^^",
"rr6pj=555555555555555555555555555555555555555555555552AKV~^^",
"rrupj4255555555555555555555555555555555555555555555555CMB~^^",
"rr8pj5555555555555555555555555555555555555555555555555AJMQ^^",
"rrupk5555555555555555555555555555555555555555555555555AJV~^^",
"rrupk=555555555555555555555555555555555555555555555555AJV~^^",
"rr9pk4555555555555555555555555555555555555555555555522CKV~^^",
"rrupk=555555555555555555555555555555555555555555555552CKV~^^",
"rr9gk5555555555555555555555555555555555555555555555555CKV~^^",
"rr9pk5555555555555555555555555555555555555555555555555AJV~^^",
"rr8ak=555555555555555555555555555555555555555555555555DJBQ^^",
"rr6a#=555555555555555555555555555555555555555555555555AJBY^^",
"rryak,555555555555555555555555555555555555555555555555AJBQ^^",
"rr8dk,555555555555555555555555555555555555555555555555AJV^^^",
"rr6a;=555555555555555555555555555555555555555555555552AJVQ^^",
"rr6a.=555555555555555555555555555555555555555555555552DJVQ^^",
"rr6a.AA2544445555555555555555555555555555555552A5Az55=SDV~^^",
"rr6.*DG25k;j=555555555555555555555555555555555CAFFFx>;*SKN^^",
"rredlPUx:kjo;5555555555555555555555555555555555JJmmzOXX<PTY^",
"rre%lNBn+a6do=55555555555555555555555555555555AFMNRnoiiOvT^^",
"rr8hbPUx y7ao,25555555555555555555555555555555AFMBml+8e+HE^^",
"rr8k%ll%j8udo=255555555555555555555555555555552xSSlOs8e@nE^^",
"rryeshhhey9go,555522555555555522555255552555551=*O seye+nEYY",
"ryrr7eieyy9go,55552555552255555255525555225555,;.i77yreODNYY",
"eeeeee7ie8i #AASAS5AAAAAAACAAAAACCACCACCAASAAS1O.e7eees:HE^^",
"% % %%% +%%<xGJJJUJJUUJUJJMJKKJJKKJKKJJKJJUJJUJS<O@@@@:xmQ^^",
"nnnnvvnnnvvPUBBBBBVVVVVVVVVVVVVVBVVVVVVVVVVVVVMUmHDnnnHmN!^^",
"TTTTTETTTBTT!!QQQQ~~~~~~~~~~~~~~Q~~~~~~~~~~~~~QQNNNEENNQQ^^^",
"^^YY^^^^^^^^^^^^^^^^^^^^^^^^^^^^^^^^^^^^^^^^^^^^^^^^^^^^^^^^",
"^^YY^^^^^^^^^^^^^^^^^^^^^^^^^^^^^^^^^^^^^^^^^^^^^^^^^^^^^^^^"
};
