/* XPM */
static char *_56e841a47ee4fec9f2a0e840e9be1c49Meg94sP1zAxXitM[] = {
/* columns rows colors chars-per-pixel */
"60 60 176 2 ",
"   c #020101",
".  c #0B0202",
"X  c #060709",
"o  c #07080A",
"O  c #0B0C0C",
"+  c #130304",
"@  c #1C0406",
"#  c #0C0E10",
"$  c #0D1116",
"%  c #0E141B",
"&  c #141515",
"*  c #12151A",
"=  c #1C1C1C",
"-  c #220507",
";  c #230608",
":  c #2C0709",
">  c #30070A",
",  c #35080B",
"<  c #3C0A0D",
"1  c #151B22",
"2  c #141E29",
"3  c #181F27",
"4  c #13202E",
"5  c #1A212A",
"6  c #1B2A3B",
"7  c #182737",
"8  c #222322",
"9  c #2B2B2B",
"0  c #2F3030",
"q  c #22303F",
"w  c #3C3C3C",
"e  c #353635",
"r  c #430A0E",
"t  c #480B0F",
"y  c #4B0C10",
"u  c #520D11",
"i  c #5B0E13",
"p  c #600F14",
"a  c #641016",
"s  c #6C1117",
"d  c #6C1118",
"f  c #741219",
"g  c #7C141B",
"h  c #5B242C",
"j  c #092B4E",
"k  c #1A2D41",
"l  c #152F4A",
"z  c #162B42",
"x  c #1D3146",
"c  c #1A314B",
"v  c #0A2E55",
"b  c #0A2F58",
"n  c #0A3057",
"m  c #0A315B",
"M  c #153353",
"N  c #1C3454",
"B  c #12355C",
"V  c #1D365B",
"C  c #16395E",
"Z  c #1C3A5C",
"A  c #23364C",
"S  c #223953",
"D  c #223B5C",
"F  c #2F3B5E",
"G  c #33395D",
"H  c #0B3562",
"J  c #0C3866",
"K  c #0C396A",
"L  c #123761",
"P  c #143963",
"I  c #1C3B63",
"U  c #233B63",
"Y  c #313E64",
"T  c #483249",
"R  c #433E5E",
"E  c #413D60",
"W  c #513F60",
"Q  c #2C4063",
"!  c #2E4169",
"~  c #3C4167",
"^  c #354169",
"/  c #344669",
"(  c #444444",
")  c #474847",
"_  c #4A4A4A",
"`  c #545454",
"'  c #5B5B5B",
"]  c #69485F",
"[  c #75425F",
"{  c #4B4466",
"}  c #484669",
"|  c #574564",
" . c #634361",
".. c #7A4360",
"X. c #6B506E",
"o. c #6D6E6E",
"O. c gray39",
"+. c #767676",
"@. c #7C7C7C",
"#. c #84151C",
"$. c #8B161E",
"%. c #97171F",
"&. c #951720",
"*. c #981720",
"=. c #971820",
"-. c #9B1821",
";. c #A41A23",
":. c #AB1A24",
">. c #B41C26",
",. c #BB1D27",
"<. c #BD1D28",
"1. c #C31E29",
"2. c #CB1F2A",
"3. c #D31F2C",
"4. c #CD202B",
"5. c #D4202D",
"6. c #DC212E",
"7. c #DA2E3E",
"8. c #D62F3E",
"9. c #DF303E",
"0. c #E3212F",
"q. c #E62432",
"w. c #EC2230",
"e. c #E82936",
"r. c #E42B3A",
"t. c #E82A38",
"y. c #E0303F",
"u. c #893C53",
"i. c #923D55",
"p. c #AC394E",
"a. c #B6394C",
"s. c #A23E55",
"d. c #B23E50",
"f. c #D32F40",
"g. c #CC3546",
"h. c #C33B4C",
"j. c #CC3B4A",
"k. c #DB3342",
"l. c #D33544",
"z. c #C43D50",
"x. c #85425A",
"c. c #8E455D",
"v. c #954A5F",
"b. c #95485C",
"n. c #A34055",
"m. c #A8455B",
"M. c #BF4758",
"N. c #B84557",
"B. c #8D4B64",
"V. c #8E4761",
"C. c #954C63",
"Z. c #9E5367",
"A. c #BC6A78",
"S. c #D1434E",
"D. c #DE4A56",
"F. c #E94956",
"G. c #C67381",
"H. c #808080",
"J. c #8C8C8C",
"K. c #8F9090",
"L. c #939393",
"P. c #9C9C9C",
"I. c #A4A4A4",
"U. c #A7A8A8",
"Y. c #ADADAD",
"T. c #B2B2B2",
"R. c gray73",
"E. c #C4C4C4",
"W. c #CCCCCC",
"Q. c #D2D2D2",
"!. c #DCDCDC",
"~. c #D7D8D8",
"^. c #E4E4E4",
"/. c #EBEBEB",
"(. c #F4F4F4",
"). c #FDFDFD",
/* pixels */
"m m m m m m m m b m b b m b b m m m H H J K K J J H J H B X.S.B.U H m b m m b H H K H H m m m m H m b b b b b b v v v n ",
"H m m m m m m m m H H H H H H m m m J J m J H m H H I } m.w.w.7.z. .U m m m m H H H H b m m m H m m b m H m m H H m m H ",
"m m m m v m m H J H H H J H H H J J J J H m H J I Y C.k.w.w.w.w.w.k.m.{ I L J H H H m m m H m m m m m m v n b n n n b m ",
"n v n H J H m m b m H H H H H H H H H m m m B G [ h.e.w.w.w.w.w.w.w.w.l.x.E I H m b b H H b v m m b H H H H H H m m m b ",
"b m m H K K K m v v v v b b m m m m H m J U  .d.y.w.w.w.w.w.w.w.w.w.w.w.t.z...Y J m m m b b v v v v j v v m J K K J H m ",
"b v b v v m b m m m H H H m H H H m m U | i.l.q.w.w.w.w.w.w.w.w.w.w.w.w.w.w.y.d. .Y b J H b v m v m m b v n J K K H m m ",
"m m m m b b n m m H J H m m H m m m ~ x.g.q.w.w.w.w.w.w.w.w.w.w.w.w.w.w.w.w.w.w.l.s.| C H J m H m b b n v n b m m v v b ",
"m b b m H J m m m m m H H H H H ! [ a.r.w.w.w.w.w.w.w.w.w.w.w.w.w.w.w.w.w.w.w.w.w.e.g.u.R L J J n m b b m H m H H J H m ",
"H K K J n n j m H J m n m m U  .p.7.w.w.w.w.w.w.w.w.w.w.w.w.w.w.w.w.w.w.w.w.w.w.w.w.w.t.a...^ H b m m m H n n n v n m H ",
"b v v v n n n m b m H H P { s.f.q.w.w.w.w.w.w.w.w.w.w.w.w.w.w.w.w.w.w.w.w.w.w.w.w.w.w.w.e.7.a.] I n m m n n m n v v n m ",
"b b b H v j v n v m m ^ V.g.e.w.w.w.w.w.w.w.w.w.w.w.w.w.w.w.w.w.w.w.w.w.w.w.w.w.w.w.w.w.w.w.q.7.n.{ L H H m m m m v v v ",
"b b b b m m n m m U [ h.t.w.w.w.w.w.w.w.w.w.w.w.w.w.w.w.w.w.w.w.w.w.w.w.w.w.w.w.w.w.w.w.w.w.w.w.q.j.x.Q m m m m n v v v ",
"m m m J K K K P { N.t.q.w.w.w.w.w.w.w.w.w.w.w.w.w.w.w.w.w.w.w.w.w.w.w.w.w.w.w.w.w.w.w.w.w.w.w.w.w.q.e.j. .M n j j v m m ",
"b b n b m b G v.y.w.w.w.w.w.w.w.w.w.w.w.w.w.w.w.w.w.w.w.w.w.w.w.w.w.w.w.w.w.w.w.w.w.w.w.w.w.w.w.w.w.w.w.t.M.~ j v m v m ",
"b n j v b C x.q.w.w.w.w.w.w.w.w.w.w.w.w.w.w.w.w.w.w.w.w.w.w.w.w.w.w.w.w.w.w.w.w.w.w.w.w.w.w.w.w.w.w.w.w.w.w.F.m m b m m ",
"m n j b m I c.q.w.w.w.w.w.w.w.w.w.w.w.w.w.w.w.3.2.w.w.w.w.w.w.w.w.w.w.w.w.w.w.w.w.w.w.w.w.w.w.w.w.w.w.w.w.w.F.b n m m H ",
"H H H m b I c.q.w.w.w.w.w.w.w.w.w.w.w.w.w.0.1.i r &.3.w.w.w.w.w.w.0.2.2.0.w.w.w.w.w.w.w.w.w.w.w.w.w.w.w.w.w.F.J K J H J ",
"H J m m b V c.w.w.w.w.w.w.w.w.w.w.w.w.w.w.1.i .   @ s ,.0.w.w.w.3.&.r r &.2.0.w.w.w.w.w.w.w.w.w.w.w.w.w.w.w.F.H H H H H ",
"m J m v v D Z.w.w.w.w.w.w.w.w.w.w.w.w.w.<.i .         < $.3.0.,.s @     @ i :.0.w.w.w.w.w.w.w.w.w.w.w.w.w.w.F.v v j v b ",
"m v v n m / G.w.w.w.w.w.w.w.w.w.w.w.w.>.u .   = &       @ p $.r .         . > g 2.w.w.w.w.w.w.w.w.w.w.w.w.w.F.H H H K b ",
"b b b b v Y A.q.w.w.w.w.w.w.w.w.w.0.;.r     8 J.K.e X       +         X 9 =   + t %.0.w.w.w.w.w.w.w.w.w.w.w.F.H H H m b ",
"H b v b b D Z.w.w.w.w.w.w.w.w.w.2.f :     & @./.(.E.' O     & O.` &   ) T.U.w o   - p 1.w.w.w.w.w.w.w.w.w.w.F.m H H J H ",
"H b b v v N v.w.w.w.w.w.w.w.5.$.r +     o O.!.).).).~.H.O & P.^.~.I.+.R.).(.E._ X   . ;.w.w.w.w.w.w.w.w.w.w.F.K K H J J ",
"H J H m b D v.w.w.w.w.w.2.g , +       X _ W.).).).).)./.Y.R.(.).).(./.(.).).).W.9   @ 5.w.w.w.w.w.w.w.w.w.w.F.K H J J H ",
"K K K K J U C.w.w.w.w.w.2.,         o ` Q.).).).).).).).).).).).).).).).).).).W.&   s w.w.w.w.w.w.w.w.w.w.w.F.L K K K K ",
"J H H m v N V.w.w.w.w.w.0.%.+     9 I./.).).).).).).).).).).).).).).).).).).).E.&   $.w.w.w.w.w.w.w.w.w.w.w.F.H J J H J ",
"v b m b v N c.w.w.w.w.w.w.0.f .   = R.).).).).).).).).).).).).).).).).).).).).!.8   p w.w.w.w.w.w.w.w.w.w.w.F.b m b v v ",
"v v v j j N c.w.w.w.w.w.w.w.0.i     0 W.).).).).).).).).).).).).).).)./.(.).).).O.  - 3.w.w.w.w.w.w.w.w.w.w.F.H m b b v ",
"v v b b b I C.w.w.w.w.w.w.w.w.6.:   X ` !.).).).).(.(.).).).(.^.).).).E.~.).).).R.o   #.0.w.w.w.w.w.w.w.w.w.F.K J H m v ",
"v j v v m I C.w.w.w.w.w.w.w.w.w.;.+   & @./.).).)./.E.(.).)./.U.).).).Y.T.).).).).0   - ;.0.w.w.w.w.w.w.w.w.F.b v m m m ",
"m b j v j N C.w.w.w.w.w.w.w.w.w.0.f .   8 L.(.).).).J.^.).)./.@.E.).).T.J.~.).(.W.w     , 1.w.w.w.w.w.w.w.w.F.b v v H H ",
"b v v j j S C.q.w.w.w.w.w.w.w.w.w.1.<     w E.).).).L.U.).).(.P.o./.).^.@.L.Q.P.) X     @ %.w.w.w.w.w.w.w.w.F.b v j v v ",
"b v v j j N v.w.w.w.w.w.w.w.w.w.w.0.%.+   o +./.).).E.` !.).).W.' L./.).L.) _ =       + i 2.w.w.w.w.w.w.w.w.F.m m H m m ",
"J m v v j V C.w.w.w.w.w.w.w.w.w.w.w.3.i     0 R.).).(.' o.).).(.I.) H.J.) O         - g 2.w.w.w.w.w.w.w.w.w.F.J K L K J ",
"H m v v v N C.w.w.w.w.w.w.w.w.w.w.w.w.-..   X o.^.).).E.9 P.(.Q.K.9 & &         + u :.6.w.w.w.w.w.w.w.w.w.w.F.b H H H H ",
"v j j v b I C.w.w.w.w.w.w.w.w.w.w.w.w.1.r     = J./.).^.` 5 ` w 9 ( ) &     - a -.2.w.w.w.w.w.w.w.w.w.w.w.w.F.v v v v v ",
"j j v n m D b.w.w.w.w.w.w.w.w.w.w.w.w.3.g .     = ) ` h 1 # e +.T.E.+.O   + $.5.w.w.w.w.w.w.w.w.w.w.w.w.w.w.F.J m v v j ",
"m b m m b V V.w.w.w.w.w.w.w.w.w.w.w.w.w.:.;       X X ( P.W.^.(./.K.=     s 5.w.w.w.w.w.w.w.w.w.w.w.w.w.w.w.F.H H m m m ",
"m H m H b I V.w.w.w.w.w.w.w.w.w.w.w.w.w.3.g ; .       & K.(.).^.+.O     y 1.w.w.w.w.w.w.w.w.w.w.w.w.w.w.w.w.F.n m b v v ",
"m m n m b I c.w.w.w.w.w.w.w.w.w.w.w.w.w.w.w.3.:.g ,     X _ K.w       , >.w.w.w.w.w.w.w.w.w.w.w.w.w.w.w.w.w.F.v v v b m ",
"v v v v m V c.w.w.w.w.w.w.w.w.w.w.w.w.w.w.w.w.w.w.5.y .             > ;.w.w.w.w.w.w.w.w.w.w.w.w.w.w.w.w.w.w.F.n m m m m ",
"m H H H b B u.q.w.w.w.w.w.w.w.w.w.w.w.w.w.w.w.w.w.w.2.u .       + t :.w.w.w.w.w.w.w.w.w.w.w.w.w.w.w.w.w.w.0.S.m H m b v ",
"j m J m v M T -.3.w.w.w.w.w.w.w.w.w.w.w.w.w.w.w.w.w.w.5.p ; + : s 2.w.w.w.w.w.w.w.w.w.w.w.w.w.w.w.w.w.w.6.>.h m m v v j ",
"m m H J H m 7 @ p >.3.w.w.w.w.w.w.w.w.w.w.w.w.w.w.w.w.w.0.:.#.:.3.w.w.w.w.w.w.w.w.w.w.w.w.w.w.w.w.w.0.<.f : * m v m m m ",
"v v v m J K l X   : g >.0.w.w.w.w.w.w.w.w.w.w.w.w.w.w.w.w.w.w.w.w.w.w.w.w.w.w.w.w.w.w.w.w.w.w.w.0.4.#.< .   4 m m m H b ",
"m m v v v b l 7 &   . < #.2.w.w.w.w.w.w.w.w.w.w.w.w.w.w.w.w.w.w.w.w.w.w.w.w.w.w.w.w.w.w.w.w.w.3.%.y +   O 4 l v m v b b ",
"v v v b v v v N z 2 o   @ u %.3.w.w.w.w.w.w.w.w.w.w.w.w.w.w.w.w.w.w.w.w.w.w.w.w.w.w.w.w.w.0.:.p ;   o 1 x M m v m v b v ",
"m m b m b m b b m M k 1 .   - p >.w.w.w.w.w.w.w.w.w.w.w.w.w.w.w.w.w.w.w.w.w.w.w.w.w.w.0.1.f > .   * 6 M n n v m m v m v ",
"b b v m b v m m m m m l 6 %   . : s <.q.w.w.w.w.w.w.w.w.w.w.w.w.w.w.w.w.w.w.w.w.w.w.5.g , +   O 6 M C m b m m H m b b v ",
"b m m b n m m m H m n n m M 7 o   . , $.6.w.w.w.w.w.w.w.w.w.w.w.w.w.w.w.w.w.w.w.0.;.r +   o 5 c B m n m m m b b v m m b ",
"v v v v v b m m H m m H m B B Z 5     + y ;.0.w.w.w.w.w.w.w.w.w.w.w.w.w.w.w.w.1.i @     * x C m n m m m m m m m v m m H ",
"m v m b n v m m m m m m n n m m n A &     + u 4.w.w.w.w.w.w.w.w.w.w.w.w.w.3.f -     O q Z H K J n m m m m m m b m v m m ",
"v v v m m b m b v b v m m m m H J B Z 6 o     ; #.5.q.w.w.w.w.w.w.w.w.0.%., .     5 D m m m J K m b b b m m n v v m v m ",
"m m n v v m b m m H m m H H J H H J J J N 5 X     , :.6.q.w.w.w.w.6.>.u .   X % S m m J n b H H m b m m b b n n m m m m ",
"v m n v v n m m m m J J m H H H J J J H m C x % o   . u >.6.q.0.,.s +   X $ 6 C H m H H J m H m m H m m m m H K K K J m ",
"m m v m v j v v b m m m m m H m b m m n m m n M 7 $ X   + f :.#.:   X $ 4 Z L H H J J H J H m m m m m H m m H H K K J m ",
"m m m m b m m m b b b m H H J H H m H H m H m H L N 4 $     @ .   # 2 l P J J J J H m m n n m n b m b m H H m m m m H H ",
"m n m m H H m m H H H H J K K K J J K K K J K H m H C M 4 #   o 1 z B H H K K J J J J K K m m m m m m m m m m b m b b m ",
"v v m m m m m m m m m H K K K K H H H J J J H H H H m K I z 4 6 N H H H m H K J H J H m H H H H H m m m m m m H m m b m ",
"v v v m m m m m m m m H b v v b H H J J H J H H m m m n m C N Z J m m n v m J H H J m m m m n m n v n b m m m m m m m v "
};
