/* XPM */
static char *_8f05106daf64dd0fe2d2ae2f1c8542fqXkCQU3qx9rXbGhI[] = {
/* columns rows colors chars-per-pixel */
"60 60 176 2 ",
"   c #1E1A19",
".  c #1C1718",
"X  c #201C1D",
"o  c #2D1F19",
"O  c #2E221D",
"+  c #32241E",
"@  c #0A192D",
"#  c #131C29",
"$  c #0B1C32",
"%  c #0C1F38",
"&  c #0C213B",
"*  c #142133",
"=  c #14253C",
"-  c #1C2839",
";  c #1D2028",
":  c #28282A",
">  c #322621",
",  c #3B2B24",
"<  c #332F2A",
"1  c #352822",
"2  c #36312F",
"3  c #38322E",
"4  c #212731",
"5  c #232933",
"6  c #2C2F3B",
"7  c #363130",
"8  c #3B3532",
"9  c #3E3836",
"0  c #43322B",
"q  c #49372E",
"w  c #4A382F",
"e  c #4E3C33",
"r  c #453B37",
"t  c #503E35",
"y  c #402F28",
"u  c #4E433C",
"i  c #53443C",
"p  c #58463D",
"a  c #5A483E",
"s  c #0B2644",
"d  c #0A2B4D",
"f  c #0C2748",
"g  c #1A2946",
"h  c #182A4A",
"j  c #0A2E54",
"k  c #0A2F58",
"l  c #0A3057",
"z  c #0A315B",
"x  c #1B304E",
"c  c #252B49",
"v  c #2A2B49",
"b  c #282945",
"n  c #382F4B",
"m  c #22344D",
"M  c #3D3F42",
"N  c #273951",
"B  c #0B3562",
"V  c #0C3866",
"C  c #0C396A",
"Z  c #0D3E71",
"A  c #42314E",
"S  c #453351",
"D  c #483454",
"F  c #4E3C56",
"G  c #593E62",
"H  c #573D61",
"J  c #3B454E",
"K  c #2B425C",
"L  c #3C415F",
"P  c #2D4660",
"I  c #3D4D6C",
"U  c #345674",
"Y  c #365877",
"T  c #365A79",
"R  c #385E7F",
"E  c #524A44",
"W  c #5C4B42",
"Q  c #584F48",
"!  c #5E544D",
"~  c #625047",
"^  c #64544B",
"/  c #69584F",
"(  c #675B53",
")  c #6D5D53",
"_  c #68564D",
"`  c #6F6158",
"'  c #6E6057",
"]  c #716157",
"[  c #72645A",
"{  c #79695E",
"}  c #77685F",
"|  c #5D4065",
" . c #5E4268",
".. c #435C6D",
"X. c #565E66",
"o. c #54597B",
"O. c #614269",
"+. c #65496A",
"@. c #6E4A74",
"#. c #754E7A",
"$. c #744E78",
"%. c #78507B",
"&. c #765078",
"*. c #476172",
"=. c #5A6F7E",
"-. c #566068",
";. c #7D6D63",
":. c #7F7166",
">. c #817167",
",. c #85766C",
"<. c #86786E",
"1. c #88796E",
"2. c #8D7D72",
"3. c #8C7C72",
"4. c #806F65",
"5. c #8F8075",
"6. c #928276",
"7. c #96857A",
"8. c #99887C",
"9. c #98877C",
"0. c #395F80",
"q. c #3B6483",
"w. c #3C6C8C",
"e. c #36759E",
"r. c #297DB1",
"t. c #287AAF",
"y. c #555A80",
"u. c #44728F",
"i. c #546E96",
"p. c #55719A",
"a. c #65638E",
"s. c #706795",
"d. c #6C6F9A",
"f. c #477CA3",
"g. c #487EA6",
"h. c #6578A4",
"j. c #875789",
"k. c #8A598B",
"l. c #875889",
"z. c #8173A6",
"x. c #8375A9",
"c. c #2D81B6",
"v. c #3589BE",
"b. c #4B83AC",
"n. c #4980A7",
"m. c #5486AC",
"M. c #4D89B2",
"N. c #578BB5",
"B. c #7D83B7",
"V. c #7D84B9",
"C. c #368CC2",
"Z. c #3E94C9",
"A. c #4097CD",
"S. c #569AC7",
"D. c #579CCA",
"F. c #599FCB",
"G. c #7999CE",
"H. c #779BD1",
"J. c #7190C2",
"K. c #5BA2CE",
"L. c #4FA7DE",
"P. c #5DA9DA",
"I. c #57A7DA",
"U. c #63A9D4",
"Y. c #72A8DE",
"T. c #59B2E9",
"R. c #73ACE2",
"E. c #67B2E1",
"W. c #6CB9EF",
"Q. c #6BC5FD",
"!. c #68C1F7",
"~. c #7CCDFF",
"^. c #77CAFF",
"/. c #87D1FE",
"(. c #88D1FF",
"). c #9AD8FE",
/* pixels */
"z z z z z z z z z z l z z z k z k z B B B V C V V B V z z z z z z B k j k k z z V C V k z z z z B z z j z z k l l j j j ",
"B z z z z z z z z B B z B B B z z z V V B V B z B B V B V B B B B B z B B z z V V B B z z z z V z z z z z B B z z B z B ",
"z z z z j z z B V B B B B B B B B V V V z z V V V C C C V V V B B V V V V V B B B B k B z z z z z z z z j j j j j j z z ",
"l j l B V B z z z z B B B B B B B B V z B z l l z z z l z z C V V B z B z z z B z k k B z z l z z z z B B B B B z z k z ",
"z k k B V C C z j j j j z z z z z z z B V z V z l & * # @ $ $ @ $ % & C V V B V B z z z l j j j d j d j j z V C C V B z ",
"k k k j j z z z z z B B z z z B B z z B z B z B < 3.3.5.3.3.3.3.3.3.2.5 V B B V C z z B B z l z l z z z j z V C C B z z ",
"z k z z k j j z z B V B z z z B z z B B V l V V E W y y 0 0 8 3 y y ) 3 z B z z k z B k B V z B z z l j j j z z z j j z ",
"k z k z V B B z z z z B V B B B B V B B B @ 7 ! ( ,.u u y././.X.e t <.} ! 5 $ C C V z j j z C B l z z z z z z B B V z z ",
"V C C V z j d z z B z z l z @ @ B z z @ r 7.] ) :.] ~ e T./.^.L.t ) _ ,.2.2.7.  @ l z B @ $ B z z k z z z z j j j l z B ",
"k j j j j z k z z z z B V 3 ,.,.s $ ! 7.^ 1.) ) ;.( { e r.Z.Z.c.t ;.( { <._ ' 3.7.! $ @ ,.<.5 z z z z z l z l z j j l z ",
"j j z z j d j j l z z z 3 <.u i 5.7.2.3.^ 1.>.;.<.~ 1.i J C.v.M t <.) ;./ >.<.;.{ 2.7.2.u i ,.4 j z z B B z z z z j j j ",
"j z z z z z z z z z z 7 <.p w 0 <.5.,.<.] 0 <.,.<.) ] ~ t 0 0 e ) _ ,.,.p 2.<.) ) ;.6.<.0 e W ,.- z z B z z z z z j j j ",
"z z z B C C C B z z 7 ,.p e e e ! 6.,.,.>.+ W W ^ u W 1.1.5.5.1.1.a t ^ ^ [ <.[ ) >.2.i e e e a ,.4 j j f d l d d j z z ",
"j z z j z z j j l 7 <.a e E.).E., <.2.,.1.>.p O X s s   X     X   j j X O u { <.<.6.<.y E.).U.t a ,.4 z d l z d j z z k ",
"k j j j j z j z 2 ,.i e u.Q.(.Q.*.~ 6.<.p > = z z B V V C V l z z B B B j * , W <.5.u u.Q./.Q.*.e a 1.4 z z z z z z z z ",
"z j d k z B z z E [ a e q.Z.L.Z..., ,.) * j B z z l l l c A A A A h l d d B f ; { <.0 q.Z.L.v...e W ;.3 z z z z l l z B ",
"B B B z k z k k 5 ( 1.>.p e.v.e.q e ^ 3 z k B B z l l z B D k.k.k.k.k.| H z z B E u e 0 e.v.w.~ <.3.Q g C C C B V C B V ",
"B B z z z k z j l @ e ] 1.{ u q e ~ Q z z z B V B f.z z z C C V c D h.R.Q.G.o.B z ( a e 0 W :.<.( 0 f V z B B B B B B B ",
"B B z j d j z B z ^ 4.u e [ 1.,.] Q z z z B B U w.m z z z z V C C V V V K Q.Q.D.K l ( } ,.1./ e W 1.r V B z j j d j j k ",
"z j j j z z z z $ 9.,.} ) p u ^ Q d j j A g U M.k B z z z T g.n.n.K V B V C S.Q.Q.K j ( ^ r W ) ;.;.8.f C C B B B B V z ",
"z l l k j j j j ! 5.,.<.<.<.p * j d j n O.T M.z z B z T P.Q.Q.Q.!.Q.D.P B B B D.Q.Q.K z * W <.<.,.,.5.r z B B B B B z z ",
"z k k k k j j @ 7.[ ,.,.<.[ + d l z k $.T W.z z B B P.0.&.j.j.j.c R D.!.P B B B D.Q.Q.B z , { >.p ,.<.6.s k k B B B B B ",
"B z k k j j d # o ` ,.<.<.i * l l z %.x P.0.B B A J.m z k k k z z z %.o.!.B B z z Q.Q.T B * i ] 2.) u ^ 5 C C C C B V V ",
"B B B z z j d u O ,.,.,.] + d d z $.O.f.Q.k k k S z k j A b.!.Q.Q.D.P S x.D.C C z P Q.Q.z B 1 { <.<.2.8.q C C C B B V V ",
"C C C C V 7 E 8.7.1.1.>.~ X l z G k.g Q.q.j j d d d d h.G.B.B.V.V.R.Q.P v x.K k j k K.Q.T V O ` <.<.<.<.8.E - C C C C C ",
"B B B z @ :.E <.5.5.5.1.u = z z k.O.j Q.R j j j j d I.O.h L k B c N.Q.W.V c m.z B B K Q.B.V & t <.6.2.2.<.u <.$ V V B V ",
"j k z l @ ,.e 3 u ) ,.5.4.7 l n k.D g.Q.R l z j j | o.A J.h k s.n.K Q.Q.0.z a.I z z z Q.Q.D 9 <.2.<.^ i 0 e <.$ z j j j ",
"j j j d @ ,.t t u q y u ] < z l.k.k g.Q.q.A j z j b.4.O.B B k U K D.V f.B.V c k.B z z b.Q.B u ( u 0 q e t e <.$ z z k j ",
"j l l z @ ,.e =./.~.X.w ] < z k.O.j g.Q.V.h K k k Q.+.T y.V.d.s.K.F.h.K i.S C d.S z z b.Q.V E ^ e =.(.~.X.t ,.$ B B z j ",
"j d j l @ ,.e T.~.~.L.u ] < z k.D j N Q.B.k 0.C C Q.F D.D.g.Y.k.Y.m.V.z 0.$.B !.k.z B b.Q.z u ^ e T.~.^.L.e <.$ l l z z ",
"z j d j @ ,.i t.A.A.r.t ] < j k.D z z Q.B.k D.O.C Q.F H.W.a.a.s.@.m.V.B z | V Q.k.c z b.Q.V E ^ t r.A.A.c.e ,.@ j z B B ",
"z j d d @ ,.e J v.v.A t ] < j k.D j z n.R.B g.s.c D.F.@.d.i.W.0.G U.V.k k v U B.k.S V P.Q.z u ^ e J v.v.M t <.@ j d j j ",
"k j j d @ ,.t e y a { 2.3.< j j.D k l k Q.K j !.I j F.N g d z z P.M.D z z k b.O.k.S B Q.Q.z E <.2.} i y t t <.$ k z z z ",
"B z j j @ ,.t { 6.1.,.i r s b.B.k.k B z f.S.B y.Q.x.c ..i.j n p.N P.R z B B k | j.A b.Q.T C & e i ,.3.3.{ t <.% V V V C ",
"B z l j @ <.2.,.p e 0 ) t d z W.k.v z z k D.K k z.Q.D.N l l v U P.M.z l z B z | k.C U.Q.Z Z & e ) 0 e i ,.2.,.$ B B B V ",
"j d d j l 5 3 3 ) ;.,.,.6.7 B F k.@.j j k P Q.P v x.Q.Q.Q.Q.Q.Q.M.l j z z z z | k.Y Q.T z z ! 2.,.,.;.) y 3 = j j j j j ",
"d d l z z j k O ` <.;.,.3.u j j j.k.v z z B a.R.g.n @.B.B.B.R m z B d f.V C B j.S P.b.C C j 0 [ <.<.<.^   V V V k k j d ",
"z z z z z k k * E :.;.<.^ 7.4 z G k.k.z z z k k.o.K.j j z z V V z U Q.m j B G O.T b.z z z 7 7.<.] <.,.p & C V B B z z z ",
"z z B z z z z @ e <.<.;.5.3.;.% j k.k.@.z B z v l.@.| K !.Q.Q.M.| O.B z z B k.x n.B z z f >.:.:.<.4.} 1 s j k z k k j j ",
"z z z z z j k l > ] ,.,.,.,.6.9 d c G.R.@.z z j c @.k.k.k.k.k. .g z z z z &.g P.m C C d 9 6.) ) ,.,.^ X j j j k k j k z ",
"j l z j j z j k @ e <.<.;.<.2.3.( j v H.R.a.z j j z c S S S h k k j j j #.x K m V z s [ 3.5.,.:.,.,.O s z z z j z z z k ",
"z B z z z j k j j > [ <.3.<.^ e } ( j v D.Q.R.K z k k k k k k k j j A F d z z z z f [ ] e ' 3.5.3.^ O z z B j z B z j j ",
"d z V z j j z z z $ ,.<.^ q e e e } ( d j 0.Q.Q.Q.D.b.K z B B B k B A B B z z z f ` ` e t q e ' 3.:.s l z z l z z j j j ",
"z z V V B z z B 7 [ ^ q q E.).E.t t 3.3 z k j T T Q.Q.Q.Q.Q.b.z z z B B B B B z E 5.u e E.).U.0 e ' ) - B z z k k z z z ",
"j j j z B C C V E W q t u.Q./.Q.*.} ,.y : j B B z B K T T T T m B B z z B z f 9 , ,.) u.Q.(.Q.*.e q ) 3 j k z z z z B j ",
"z z j j j k z z 5 ,.W t w.C.A.v.*.2.i ] 9.[ 4 j B z V z d j k z B B B B d 8 :.7.^ ^ 6.w.v.A.c...t W ,.= z z j j j z k j ",
"j j j k j j j k j 4 ,.a 0 e.C.e.] <.y ,.<.3.7.[ Q $ $ Q Q Q Q Q Q $ & Q >.6.1.<.<., <.~ e.v.w.w ! ,.= j k z j l z j j k ",
"z k z z k k k k k k 4 <.W q y 0 2.i ] } <.<.<.3.2.8.( ^ i i E i [ { 8.2.{ ;.<.,.,.^ ^ 7.0 y q ! ,.= B z z j z z k z j z ",
"z j j z k j z z z z z - >.a e ) ,.y <.;.<.<.,.<.,.) ] ~ t t t e ) _ <.<.<.,.] ) :.<., <.( e ~ ,.= V z z z z z B z j j k ",
"k z z k l z z z z z z j 5 <.a 6.i e ^ <.] ) :.,.,.^ <.t =.(./.X.t <.) <.,.<.) ) ;.^ e ^ 7.~ ,.= z z k z z z z j k z z k ",
"j j j j j k z z B z z z z - ,.,.s s X e a ) { <.<.) ] t T.~.^.L.t } / <.,.,.4.a e   s @ :.,.= z l z z z z z z k z k z B ",
"z j z k l j z z B z z z l z & s z z z s X e a ^ 4.] ~ t r.Z.A.r.t ) _ ,.^ p e X s z z B d f C V z z z z z z z j j z k z ",
"j j j z z k z k j k z z z z z B V B z B B f -   e ,.e e J C.C.M e e <.e X = f z V z z z z z V C z j z k z z j j j k z k ",
"z z l j j z z z z z z z B B V B B V V B B z z z E W , , , O O 1 , , / 3 d z z z z z B B z z B B z z k k z j z k k z z z ",
"j z l j j j z z z B B V z B B B V C B z z z l l 4 ^ ^ ^ ^ ~ ^ ^ ^ ^ ^ = z B B B z B B V z z z z B z z z z z B V C C V z ",
"z z l l j d j j j k B z z z B B z z z z z z z j j @ @ @ @ $ $ $ $ @ $ C V B B B B V V B V B z z z z z B z z B V C C V z ",
"B z z z z z z k k k k z B B B B z z B B z B B B z B z B B z j z B B z B B V V C V V z z z z l z k z k z B B z z z z B B ",
"l l z z z V k B B B B V V C C C V V C C C V V B B B B V V B z z z B B B B C C V V B V V V B z z z z z z z z z z k z k k ",
"k j l z z z z z z B k z V C C V B B B V V V B B z B z V V B B B z B B B z B C V B V B B B z B V V z z z z z z z z z z k ",
"j j j z z z z z z k z V z j j k B V V B B V B B B z z z B z B z V z z l j z V B z V z z z z z k j j j k z z z B z z z j "
};
