/* XPM */
static char *_02717f74f1148eb9636fd7b5df240def7GgEVctYS0zPh02[] = {
/* columns rows colors chars-per-pixel */
"60 60 163 2 ",
"   c #0F345D",
".  c #0A325C",
"X  c #0A335D",
"o  c #0A325D",
"O  c #0A315B",
"+  c #0A305A",
"@  c #0A3058",
"#  c #0B315A",
"$  c #0A3059",
"%  c #0B3562",
"&  c #0B3563",
"*  c #0B3664",
"=  c #0C3867",
"-  c #0C3869",
";  c #0B3865",
":  c #0B3663",
">  c #0B3864",
",  c #0A335F",
"<  c #0B315D",
"1  c #0B325C",
"2  c #0B335E",
"3  c #0B345F",
"4  c #0A2F57",
"5  c #0A305B",
"6  c #0C396B",
"7  c #0A315C",
"8  c #0B315B",
"9  c #0A3562",
"0  c #0A315A",
"q  c #0A2E54",
"w  c #0A2E53",
"e  c #0A2E56",
"r  c #0A335E",
"t  c #0B3361",
"y  c #0B3461",
"u  c #0C3865",
"i  c #0B335F",
"p  c #0A3663",
"a  c #0B3561",
"s  c #0B3462",
"d  c #0A345F",
"f  c #0B335D",
"g  c #0B305B",
"h  c #0A2F56",
"j  c #0C3563",
"k  c #0A3461",
"l  c #0A3561",
"z  c #0A3664",
"x  c #0B3665",
"c  c #0C3664",
"v  c #0B3867",
"b  c #0C3866",
"n  c #0B3866",
"m  c #0B345E",
"M  c #0B315C",
"N  c #092D51",
"B  c #0A2F58",
"V  c #0A3057",
"C  c #0C3461",
"Z  c #0B3463",
"A  c #0C3A6B",
"S  c #0C396A",
"D  c #0A315D",
"F  c #0B325D",
"G  c #0C3663",
"H  c #0C3665",
"J  c #0A2D51",
"K  c #0A2B4F",
"L  c #092C50",
"P  c #0A2C50",
"I  c #0A2E52",
"U  c #0C386A",
"Y  c #0A325B",
"T  c #0A2D53",
"R  c #0A3361",
"E  c #0B3058",
"W  c #0A2E57",
"Q  c #0A3563",
"!  c #0B305A",
"~  c #0D3A6C",
"^  c #0D3F72",
"/  c #0D3E72",
"(  c #0D3C6F",
")  c #0D3B6D",
"_  c #0D3A6B",
"`  c #0A2A4D",
"'  c #0C3864",
"]  c #0A3159",
"[  c #0B325E",
"{  c #0A2C4F",
"}  c #0C3562",
"|  c #0B396B",
" . c #0B3869",
".. c #09294A",
"X. c #092B4F",
"o. c #0A2B4E",
"O. c #092E54",
"+. c #0C3B6D",
"@. c #092A4C",
"#. c #092849",
"$. c #0A2C51",
"%. c #0A2D52",
"&. c #0A325E",
"*. c #092B4D",
"=. c #0C325E",
"-. c #092B4E",
";. c #092D50",
":. c #0C3969",
">. c #0B3662",
",. c #0B396A",
"<. c #0D3869",
"1. c #0D3866",
"2. c #0A2D50",
"3. c #092C4F",
"4. c #0C3361",
"5. c #0C3A6C",
"6. c #0A2E55",
"7. c #0A2F5B",
"8. c #0B3564",
"9. c #0C345F",
"0. c #0A355F",
"q. c #0A3462",
"w. c #092D52",
"e. c #092C4E",
"r. c #0B3460",
"t. c #082D50",
"y. c #0A2E51",
"u. c #0A2E58",
"i. c #092E52",
"p. c #0C3C6D",
"a. c #0D396B",
"s. c #082C4D",
"d. c #0A2A4E",
"f. c #0A2C4E",
"g. c #092C4D",
"h. c #0A2F55",
"j. c #0A2C52",
"k. c #082B4D",
"l. c #092A4D",
"z. c #08294C",
"x. c #0B3059",
"c. c #0A2F54",
"v. c #0B3966",
"b. c #0C3561",
"n. c #0A2B4D",
"m. c #0A3665",
"M. c #0A345E",
"N. c #09294B",
"B. c #092749",
"V. c #0C3B6E",
"C. c #0A2A4C",
"Z. c #0C3C71",
"A. c #0D3C71",
"S. c #0D3E71",
"D. c #0C3E71",
"F. c #0A3864",
"G. c #0A3564",
"H. c #0B3863",
"J. c #0A3056",
"K. c #0B325B",
"L. c #0C3564",
"P. c #0C3666",
"I. c #0A335C",
/* pixels */
"  . X o . o . O + + @ + O + @ # $ . % & * = - ; : & > , o < 1 . 2 3 $ 4 @ + 5 . : 6 * 7 8 . @ 3 9 o $ 4 O 0 $ @ 4 q w e ",
"r r X O + + + . 3 t y y % & y 7 o 3 > u 3 : % i y % p * : % a s % d i i r f 3 : * * t o o O o % O + $ g r r r , 2 3 3 a ",
"o o o + h + X j ; & k l : a * z x u u > o i c c u = - v b b n & * u * ; ; : % s y m . . d r 7 O 0 7 , o e 4 h w w 4 $ M ",
"w N @ y = * 7 B 0 r a k % y % s s % % 3 2 X O + 2 2 o O O r = b c & i r r f r y m + $ % 3 $ V @ @ + 2 % : * & C f 7 + 4 ",
"$ + O Z = A S . q w q e @ $ g D M F r d G X u 0 + a : y . + $ o u 6 S S v H : * & F o O $ B h h J K L P I o n U - ; s Y ",
"+ V 4 T h @ $ O + 1 % * 3 o 2 y r o X a d % o 3 y R X * & i y % * * v 6 b & a ; = Y @ G l E h O h 1 3 0 w $ n 6 = c y . ",
"+ + . + 4 W 4 7 o d > % . 1 r 3 . . : * % B > : . X a u i e J J w $ F 2 , 2 + + + 2 3 + : b X % 2 $ h q w w + o O q q + ",
"5 + + O * * 3 . O o 3 G & Q & : * p % % s Q y s r o r 7 ! 8 M 8 2 & x ~ ^ / ( ) _ u @ q e o n & $ @ + M m 3 2 3 * u , o ",
"u - S > @ q ` O 3 ' o @ $ M r , o o d 3 r . X 2 X o . o 1 4 o a o y n - - y 7 4 e 4 . G : p % y 5 5 + o r ] w w q $ r & ",
"4 w I 4 V 8 + + + 7 i l u ; y 2 7 - A r o @ . 2 d 2 r F r ' & * : b U 6 [ @ $ 7 2 % u - v y X . M O 8 + V 4 $ @ e h 4 @ ",
"e 4 0 3 I { J V q . 7 3 & * O $ 7 3 % y F o X y a 2 3 X . y c H c u - & 8 & : & & & j u c $ h q h 7 3 } y F 0 7 0 4 e e ",
"V $ + 8 O Y O . 7 m # . o 2 , [ F r d o F 1 r , , r r d F o [ F 8 0 . 1 X = ; b A b $ w e $ $ @ V + r i X o . o 0 q I w ",
". . r & S |  .y 7 . r O $ + + $ @ O 3 1 7 2 r F o o m 2 [ 2 d d y a k a & - b y 0 V 4 $ O F o O q h h N ..J 4 X.o.4 O . ",
"B 4 @ $ 0 + 4 w I I O.4 5 . 3 : % 0 X . y > k F * o 4 $ O O o i : S +.b i F o o 2 O V @ O 7 o 7 g . o o @.w @ #.q @ @ $ ",
"B h $.%.4 + B + F 1 . . < &., a d X y % 3 , 2 + y * > b - b O . 3 & c y [ r k y y d l : b = -  .- * &.. a [ o 1 # + O F ",
"O w *.$ o 3 O F =.2 m 2 i 2 , k o 7 . o F 3 a i F @ B @ @ @ $ + $ h I -.;.k & 3 i F d 3 ; _ :.= U b j k o O O + $ $ 2 k ",
"& s i 7 $ + $ B 4 @ @ $ $ @ @ q e $ F a O @ : y + @ @ 2 % : >.o 7 o . . f + $ y s i i i &.o k ; U 6 ,.6 - <.b b = b x * ",
"& % 3 o $ + $ B q e J w h V @ + 7 y 3 r O O : ; % r + F o n +.= ; : % * b ; % & % u = ; 1.= b b b n u * k y y y a s % & ",
"d & 7 q 2.w 0 & y B 3.{ q 4 F $ r 4.i X 2 3 y & a % . $ 5 . u = v ' c n = b ' G j & & r < + $ O $ e O u j 7 h q J %.w 5 ",
"o q w @ ! 8 O 1 y d o Y O $ $ O $ P J %.w @ $ O $ % 3 $ 0 . * u ' ; : c ; A 5.% + . + @ + F o X 1 F % v ,.= & & % % u i ",
"O $ @ 4 q q w q q w q h V @ @ $ 6.J q @ 7.o o . o & 2 . J y r o . % * : G z Q % y y & & s % y i F r d y 3 % : * : % d O ",
"o $ 4 4 @ B 4 4 W e 4 O e 2.K q q . + 8.C r 7 X % Z 5 + + i C 9.2 2 g 8 d * % 0.d i k q.% r - U  .U n 3 $ @ + r y % j s ",
"% $ 4 q N w.J %.J -.e.@ r 0 X.I W r.$ o . o d n . O 9.8 O O 7 M O 7 o r 3 G 3 o 3 : 2 3 k G = :.- ; G % ; v  .S - * ; b ",
"& G s F + 4 J -.P J P 4 7 4 t.y.$ + $ u.4 V $ $ + M V 6.h V + @ e $.i.@ y p.) u 7 r 2 + r - 6 v U 6 6 a.6 6 - = x : b * ",
"U U S - u % * O $ $ Y e s.P W + @ 6.$.y.%.I T { d.f.P B 7 e @ o w.*.q * +.5.& O 4 $ 0 $ O = S v 6 - b = S ~ S - U S U U ",
"* & y o e %.e w q h $ q g.{ $ + h.%.6.w J w 6.w 2.2.K %.T h @ . + 4 l U : . + o y , d k : = > ; A - u ; * c : 8.' c c c ",
"h $ r + w 2.w h B 0 O V j.P $ O $ $.I @ q V $ V y.k.w > u . @ w V + 3 & k 3 y % O F 2 2 3 s : b ) b r , O B @ 5 O B w e ",
"q w I l.z.3.P J e e q e B @ O r 2 + $ @ 4 @ @ @ @ W 4 O o . O i 2 2 * : % % & & % . $ n v y O . 2 r 3 H - ,.v 2 0 + x.w ",
"w 4 $ $ O F 8 5 0 4 $ 5 F . 5 @ h.q %.$.J P T + O h 8 7 . X y : : c ; % 3 8.s O @ + k n n c k 2 m r 2 s b <.S = * y M e ",
"4 J J 4 0 l 2 J w.w B x.$ $ @ c.q w 6.@ ! O M n v.o 0 M o &.b.' : . + + $ o q.% &.V r 9 2 o $ O X O 0 O + @ B @ E $ o 8 ",
"7 h 2.J n.-.+ 2 F 4 $ @ h e W 4 $ $ $ + . D . m.U 3 4 e @ @ 4 4 e B 7 i M.4 n u % [ i p ; j 2 f y y c : c V h @ q $ a Q ",
"4 e J K -.*.P P J I w w e h w q 4 e h @ 8 & y y y i i 2 O B + 2 2 F M @ @ Y r r d y s o @ r 9 O @ 2 o $ + + @ 4 I P %.q ",
"+ h { *.-.-.%.{ P X.-.-.P %.e B + $ V W V b q 5 4 w W w %.P O o . * a + 2 7 $ O 8 f & , $ O & o $ % > ' a O M F 1 r X 1 ",
"} F 4 w *.q 5 2 f J P V $ + + B w 5 s r % 3 2 @ w q $ @ I J 7 % o O F F y y + N.B.X.. & % A V.l . % > ; b b = v b = b H ",
"s F @ J l.I [ [ 8 B @ 3 % % 3 Y O + O O O + + + + + + $ V V B @ + 5 $ @ M 2 O C.$ 6 Z.A.S.D.; d X 7 O B + 4 %.0 a & s * ",
"L { 2.q $ 7 1 F 2 r o X r [ 7 $ V e e 4 B $ + M . . O $ h q o 3 2 @ w $ 2 7 O 7 s ; ; l 2 o $ @ @ + . 0 + h 4 4 h h w %.",
"{ X.I $ + + $ O f r . . X O 4 e w B O Y 2 s s 2 O O . o . 0 7 % i C q J F. .i * 3 + v S = x > S ( 5.* k H b b c o h I 2.",
"O + r 2 $ B $ . 2 3 . % e w @ r X D 7 O . 0 B V V 4 q h 7 o G r Y + @ 4 h a G.i F O + O i 3 y s u -  .v = - u c y 2 M ! ",
"5 3 2 2 1 8 O W w w e w J P -.P w 4 $ + 1 % r . O O 0 @ h B + 1 r 3 y i o m b.y y d F . O @ @ $ @ @ $ $ @ 4 4 V V 4 e e ",
"1 o + $ + $ @ V W 4 q w q w J I w $ + e w O 7 w %.q + r . O . . 7 + O 7 X o X y q.v U ; i o O @ e 4 4 4 e W W 4 4 4 h Y ",
"4 4 4 h h h 4 4 B @ + 5 + + 7 o 2 y i y y &.M I q O 1 . 7 . O @ h q h @ O y : ; > M.. Y i . @ $ B e q + 2 7 @ $ 1 2 . + ",
"F y 3 F + 4 e q q e e w I h % O 1 . . 1 O 7 + 0 O + $ @ @ + + @ h h h @ + O . . . Y Y o = 7 . $ $ @ $ 8 i s @ $ & @ e 4 ",
"l.O u o I @ O X &., 2 . + + h e @ E B h w e J J q @ + + 7 i y o 7 . d & % 1 r r . X X 2 3 1 o + $ O . O O $ $ o 8 w I P ",
"0 F * ; 9 f o d % k $ 4 I 4 + + 1 $ $ 8 M $ c.q h 5 2 F + + O 7 F r y y y a y + o O o 3 >.&.+ $ 0 @ q q y $ $ + $ + O O ",
"c.@ w @ : 5.S H.a 2 O 4 q 4 $ $ + O 1 O + M y % . } + -.$ b n n ; % # 2 u 3 2 7 8 X , r 1 X X 7 5 $ @ B 4 B @ + O g y 4 ",
"$ $ h e e W $ F F M + + 7 &.b.. 5 g 5 r o $ q h 2 2 x 7 L J + X m y ' % 4 &.F s & G n :.:.S S  .u & r O 0 + $ 4 @ @ $ e ",
"h 4 4 4 q q w q e q w q @ $ B + . . 3 r r o o $ @ O . r 3 } } % y y 3 3 % 2 . 3 * , + 0 7 5 + . F O @ 4 @ @ @ V V V h h ",
"@ + + @ B $ $ g + $ $ @ x.$ $ 8 Y 1 [ 2 2 O $ J.$ . . M.d . 2 % % % r a * % d k y y y 3 i F F i i y & O @ $ 0 + $ @ @ $ ",
"$ B V $ $ $ O F . 0 $ q $ B q q 4 B e q h V $ O . . O Y r 1 O o o 2 . d 8.i k u - : X 7 o f . 7 r % i + @ 1 O a + 4 4 @ ",
"x.O $ @ @ @ @ O i 0 $ h M O + 8 2 2 7 O . . . O K.%.I h @ @ 4 + 1 d a % i o n s d * b y 7 z , + $ + + $ O 7 $ $ $ + + $ ",
"h h q %.w $ O . y r r i i 3 , 2 d d r f . 7 . &.o 7 o r F 1 0 O f = A > d y y : n x o + $ % * o + O M 7 r . O $ @ $ . % ",
"$ 4 + $ @ h $ F &.$ 1 M.4 $ O + O 2 [ k y & x ; ; % 1 + * * F &.y 7 = * r v . O o . o , % >.U ; . . 7 . 1 O $ V V $ + + ",
"w q h + $ ! F 4 w e 4 4 + o 2 : n : 2 } L.' : b n 9 i c u * P.& : 8 $ + @ 9 y y % 7 . o f 3 ;  .r @ @ 4 $ $ 4 w w B $ @ ",
"1 $ V 4 @ $ B . f r o r 3 % u Q q.: * % y , . O 0 &.* u k y X , u 4 J w w 2 O F i 7 d c B O y a B @ + @ $ B @ $ $ 5 M F ",
"$ $ @ I J h 8 . 2 2 * u &.y d & v = > y F 5 4 h 4 + y n b ; s i [ o i i r >.y 3 y a >.: y X 2 2 3 [ D . O O y - V.5.: 7 ",
"O 0 @ + q P I q e $ 2 o 8 F % i + O + $ O 2 0 h h @ . I.3 ; - = = b - S = : % y k = b y u d $ + 7 F =.i , 2 9 ; - :.& &.",
">.3 + + + M 0 $ + O $ 7 & : * % 2 m y 3 3 3 3 i i t l % % 7 4 D : % 3 , y > = = ; > 2 . . ] @ E @ $ + 7 % % , . M r 3 s ",
"V $ $ 2 d * 7 F r k y & ;  .A - b b U 5.- b v x d k 3 b ; & O $ . k & a & - U = ; > > = = a X o . O 0 $ $ $ + + $ $ $ + ",
"h 4 @ 5 5 7 o F X . . r n ) ~ ; j } H u b = % C , M.3 b u R : , o r % % r s U = & ; y y % k a u > o O F F f 2 2 0 $ $ @ ",
"q w e f M.0 + + 5 M 2 & O w q $ y * ; * * v a % i o 7 7 2 3 y 3 * 2 o @ q F n a r * o o O O $ B h w h $ $ 5 o i a F $ V "
};
