/* XPM */
static char *_0c27278df244fdbe05d0fe022ca5557HaB7OcsIsGdHyIYU[] = {
/* columns rows colors chars-per-pixel */
"60 60 243 2 ",
"   c #040403",
".  c #0B0403",
"X  c #020903",
"o  c #0B0904",
"O  c #05050A",
"+  c #0A050B",
"@  c #0C0C0C",
"#  c #050909",
"$  c #140503",
"%  c #1A0404",
"&  c #180907",
"*  c #0B120A",
"=  c #1B140C",
"-  c #0D0D13",
";  c #0C0112",
":  c #120E13",
">  c #100719",
",  c #0B1216",
"<  c #131313",
"1  c #141A1A",
"2  c #1C1C1C",
"3  c #191517",
"4  c #240405",
"5  c #2C0505",
"6  c #2C060A",
"7  c #260907",
"8  c #360709",
"9  c #271C04",
"0  c #23171D",
"q  c #3F1316",
"w  c #1A201D",
"e  c #372C0D",
"r  c #26281B",
"t  c #362E11",
"y  c #1D1B22",
"u  c #1D1429",
"i  c #221E22",
"p  c #261A22",
"a  c #28163B",
"s  c #1F2524",
"d  c #242424",
"f  c #242429",
"g  c #2A2A2A",
"h  c #282827",
"j  c #372929",
"k  c #2E322E",
"l  c #2B2C33",
"z  c #392E38",
"x  c #343434",
"c  c #36343A",
"v  c #3C3C3C",
"b  c #393536",
"n  c #333432",
"m  c #4D0A0C",
"M  c #47070A",
"N  c #56070B",
"B  c #570712",
"V  c #591516",
"C  c #4F0F10",
"Z  c #650B0C",
"A  c #6B0A0C",
"S  c #76080B",
"D  c #690B12",
"F  c #770914",
"G  c #6E1412",
"H  c #47360F",
"J  c #4E1C21",
"K  c #452B29",
"L  c #52312B",
"P  c #6D2D34",
"I  c #3A413B",
"U  c #6D560F",
"Y  c #78690F",
"T  c #504C36",
"R  c #6B5230",
"E  c #7C7835",
"W  c #4F4107",
"Q  c #092B4E",
"!  c #0A2E54",
"~  c #0A2F58",
"^  c #0A3057",
"/  c #0A315B",
"(  c #12365C",
")  c #3B3A41",
"_  c #0B3562",
"`  c #0C3866",
"'  c #0C396A",
"]  c #133B65",
"[  c #163C66",
"{  c #0D3E71",
"}  c #381058",
"|  c #413E42",
" . c #403D50",
".. c #7D3B43",
"X. c #511C67",
"o. c #1B426B",
"O. c #385A7B",
"+. c #284C71",
"@. c #444444",
"#. c #4B4B4B",
"$. c #484548",
"%. c #574647",
"&. c #545049",
"*. c #4C4A55",
"=. c #534E54",
"-. c #545354",
";. c #5C5C5C",
":. c #585558",
">. c #4C5453",
",. c #625A57",
"<. c #58615C",
"1. c #74675B",
"2. c #5D5B63",
"3. c #415E7E",
"4. c #645D67",
"5. c #6E5678",
"6. c #5F6762",
"7. c #636363",
"8. c #6A6B6B",
"9. c #686468",
"0. c #766C6C",
"q. c #6D6A72",
"w. c #757574",
"e. c #7B757B",
"r. c #7A7A7B",
"t. c #787576",
"y. c #777170",
"u. c #820B0D",
"i. c #960B0E",
"p. c #850D13",
"a. c #8D0C13",
"s. c #890A19",
"d. c #980B16",
"f. c #88131B",
"g. c #95101B",
"h. c #A40D13",
"j. c #AD0E15",
"k. c #A80B19",
"l. c #B30D15",
"z. c #BC0C16",
"x. c #B20C1B",
"c. c #BB0C1B",
"v. c #B70517",
"b. c #AA1214",
"n. c #AA1318",
"m. c #B3121A",
"M. c #B61218",
"N. c #AE0E0C",
"B. c #8D1421",
"V. c #981622",
"C. c #B21023",
"Z. c #9C2E16",
"A. c #C20A17",
"S. c #C01118",
"D. c #C71924",
"F. c #D01924",
"G. c #C8212B",
"H. c #D9242A",
"J. c #CB2634",
"K. c #D92730",
"L. c #E92934",
"P. c #F02D34",
"I. c #867111",
"U. c #966F20",
"Y. c #C6530D",
"T. c #817D77",
"R. c #82696A",
"E. c #78817D",
"W. c #9C900E",
"Q. c #978714",
"!. c #AD9310",
"~. c #A69523",
"^. c #DFB216",
"/. c #EACD17",
"(. c #F7D42C",
"). c #DCC619",
"_. c #82827D",
"`. c #8D8D6E",
"'. c #908753",
"]. c #F8E076",
"[. c #486481",
"{. c #5B738B",
"}. c #566F8A",
"|. c #7C7883",
" X c #6B728A",
".X c #6E4E84",
"XX c #621E93",
"oX c #872CBF",
"OX c #837D85",
"+X c #9E7EA9",
"@X c #A577B5",
"#X c #9326D6",
"$X c #B66EC8",
"%X c #C47FDD",
"&X c #D17DF0",
"*X c #718499",
"=X c #838484",
"-X c #85828B",
";X c #8A858E",
":X c #8B8C8D",
">X c #888B86",
",X c #8D8D93",
"<X c #958F93",
"1X c #8D9496",
"2X c #939393",
"3X c #9B9C9C",
"4X c #999398",
"5X c #8E8E8B",
"6X c #A09D9D",
"7X c #A7959C",
"8X c #99A39E",
"9X c #8996A3",
"0X c #9899A4",
"qX c #A29AA6",
"wX c #B195B3",
"eX c #9CA4A8",
"rX c #97A4B1",
"tX c #A5A4A4",
"yX c #ABACAC",
"uX c #A8A6A8",
"iX c #ADA7B4",
"pX c #B4ACB7",
"aX c #B3B3B3",
"sX c #B7B5BA",
"dX c #B1B1B0",
"fX c #C3BDBF",
"gX c #BF9DD3",
"hX c #BDBAC0",
"jX c #CD9EDB",
"kX c #CB92DC",
"lX c #C2C1C2",
"zX c #CAC9CD",
"xX c #D8D8D6",
"cX c #D2CDD2",
"vX c #ECE5D1",
"bX c #DDDDE1",
"nX c #E0DEE1",
"mX c #E6E4E5",
"MX c #E9E9EB",
"NX c #EFEDF2",
"BX c #FCFBFC",
"VX c #F6F6F7",
"CX c #F5F5EB",
/* pixels */
"/ / / / / / / / ~ / ~ ~ / ~ ~ ~ ~ / _ _ ` ` ' ` ` _ ` / / / / / / _ / ^ ^ / / / ` ' ` / / / / / ` / / ! / ~ ~ ~ / ! ! ^ ",
"_ / / / / / / / / _ _ _ _ ` _ / / _ ` _ / ` _ / _ _ _ ` ` _ _ _ _ / / _ / / / _ _ _ _ / / / / _ / / / / _ / / _ / / / _ ",
"/ / / / ! / / _ ` ` _ _ _ _ _ _ ` ` ` ` / _ _ ` ` ' ' ` ` ' ` _ ` ` ` ` ` ` _ _ _ / / / _ / / / / / / / ~ ~ ~ ~ ! / / / ",
"^ ! ^ _ ` _ / / ~ / _ / _ _ _ _ _ _ _ / / / / / / / / / / / ` ' _ _ _ / / _ / _ / / / _ / / ! / ^ / / _ _ ` _ / / / ~ ! ",
"~ ~ / _ ' ' ' / ^ ^ ^ ^ / / / / / / ] t.w.,X` / / _ _ _ / / / / ` ' ' ' ` r.t.r._ / / / / ^ ! ! Q ! Q ! ! ~ ` ' ' ` _ / ",
"~ ~ ~ ! ! / / / / / / ` / / / _ _ / >Xo @ x / / / _ / _ _ / _ _ _ _ ` ' O.= $ 7 ' / / _ / / / / ^ / / ~ ! ^ ` ' ' _ _ / ",
"/ ~ / / ! ~ ! / / / ` ` / *Xb x x x k w d d x :X/ / _ ` _ ! ! Q ^ / ~ -.z N S s.b b v c $._ / _ / / ^ ^ ! ! / / / ! ! / ",
"/ / / / _ ` / / / / aX6X6Xt.h < , < 2 h h d < #.tX/ / / / / / / / [ 7Xj 8 u.h.l.m M m M V 5X8X3X^ / ~ / / _ / _ _ ` / / ",
"_ ' ' _ ^ ^ Q / / ` @.    d 7.v g g g g d d f 1   9X/ / / / / _ ~ e.$ C S l.v.v.n.v.S.n.k.5 . . uX~ ~ _ / / ^ ^ ! ^ / _ ",
"/ ! ! ^ ^ / ^ / dX-.$.I $.I x g h h g g #.=.#.c 2 @.;./ / ` _ _ *.K m a.b.K.L.K.b.h.p.d.z.p.p.F T 8./ ~ ^ ^ ^ ^ ! ! ^ / ",
"! ^ ~ / ^ Q Q / 5X@ $.;.;.$.h h h h g g -.;.-.T h @ < [ [ _ ` yX  8 A d.n.P.L.L.z.d.Z d.j.l.z.x.M g _ _ ` / / / / ! ! ! ",
"^ / / / / / / / 2X@ @.;.g g h g h h v -.7.>.: @       w r p d 0   + $ $ M L.F.b.c.m.x.a.S v.l.x.M x ~ _ / / / / / ! ! ! ",
"/ / / _ ' ' ' aX8.h I -.3 d h h h b @.;.&.@.- * < - , * +   8 8 8 5 4 4 m G.M.b.M.h.j.F D F s.M.D P 2X! Q Q ^ Q Q ! / / ",
"~ ~ ^ ~ ~ ~ / 2 g ;.x d   @ h h x -.6.7.g h h h h h h f 0 $ d.A.M.a.S Z F A d.z.j.d.S Z F $ 6 l.K.J.7 8.Q ! ^ Q ! ^ ^ ~ ",
"~ ^ ! ! ~ ~ ~ 2 g :.x h 3 1 @ d k :.$.d g k @.$.$.$.$.h 3 $ d.M.H.m.d.i.i.D M m l.d.A M 6 D u.x.H.J.4 9.( / / / / / / / ",
"~ ^ Q ~ / _ / w g 7.v g g 2   2 v :.x   d x ;.;.;.<.:.h 2 . k.M.P.F.v.j.h.A 7 $ k.g.A 5 $ i.j.l.H.F.6 8./ / / / ^ / / _ ",
"_ _ / / / ^ / s g :.x d g 2   2 w @ < h h h h | 7.:.2.;.x $ J.L.P.H.h.u.S A d.d.6 8 Z 5 $ d.v.b.H.K.7 9._ ' ` ` ` ' _ _ ",
"_ _ _ / ^ / / :X;.n g h g 2   2 d o < h 2 3 1 g @.@.$.@.g % C.F.G.n.p.M 5 M a.k.$ 4 F 5 . h.b.M.f.P 0.dX_ _ _ _ _ _ _ _ ",
"/ _ / ! Q ! ~ _ :X@ 2 h h 2   3 d @ : g * #   < h d h h 1 . C.n.m.i.Z & + o G x.. 4 F 4 o d.m.j.M k _ _ _ / ^ ! ! ! ! / ",
"/ ! ! ^ / / ~ / 2X@ 2 h h s r @ : < 3 @ tXhXlXe.* s r g 3 $ V.n.G M % 8XfXfXT 8 s.D 5 8 m h.j.z.8 k ] _ ' ' _ _ _ / _ _ ",
"/ / / ! ~ ! ! ! 3Xy d d g h g < o s w , zXMXmX,Xy y h h 1 $ s.h.A C 1 zXnXmX=.= f.D . B Z k.j.k.C I / ` _ _ _ _ _ _ / / ",
"/ / ~ ! ~ ~ ! ^ ! ! $.  d h g @      .wX2   ; y.CXT X g p . V N . _.VXh O . e.qX+ +   M S k.g.o yX` ` / ! / / / _ _ _ _ ",
"_ / ~ ! ! Q ! ~ Q Q @.  h h g @     v iX2 > X..X6Xw.:.2 : . 8 J 7.*XiXX.} O 9.qX+     M Z k.a.X eX` ` ` ` ` ' ' ' ` ` ` ",
"_ _ _ / ~ ~ Q Q Q Q @.  h h x ,     *.pX2 a #XXXX sXmX      . b VXw.; oXoX; q.tX@ . X B D b.s.  tX' ' ` ' ' ' ` _ _ ' _ ",
"' ' ' ' _ _ _ / ^ ^ $.  g 2 @ o h 3Xe.z @ f &X%X0X4.=.|.$.- q.q.=.|.@X&X$X- d b yXT.  % 5 k.i.. aX' ' ` ' ' ' ' ' ' ' ' ",
"_ _ _ / ! ! ! ! ! / v @ h 2   2 $.lX2Xd s v jXjXkX) < iX7.i ,XOX  5.kXjXwXg g d xXeXd < . f.u.% 0X' ` ' _ _ _ _ ` _ _ _ ",
"! ~ / / ! Q ! ) h d d d X o   ,XaXv 8.mXbXsXf p u + < NXzX1XmXhXo : p u  .cXbXxXd ;.rX;.o % 8 v.V d h e./ / / / / ! ! ! ",
"! ! ! Q Q sXr.Y H X < 2 r.-.  uXxX;.9._._.OXE.T.|.T.OXT.qXzX;X=Xr.r.r.t.T.=X=X=X*.=XO.6.- 0.0.Z % = U E _.' _ _ / ^ / ^ ",
"! ^ / / ~ 9.e ).Q.o   3 / tX  yXNXsX9.O   b NXBXBXBXmX  8.MXg v BXBXBXBXzX-   . qXsX[ 9.1 +.[.@ o t ).Q.O aX' _ ` / / ^ ",
"^ ! Q ^ / _ aXH 1.[  X*X/ }.cX9.f y *.-X< @ h g k -XiXO 9.mXg h hXq.h g g   2.-Xh i h 2X{./ / o.] eXt 1./ / ! / / ~ / / ",
"/ ! Q Q Q Q / =.5X^ ^ ^ ^ {.lX-.< O c -Xx y o 3 h 9.q.l 7.sX@.c OX*.l + : d 2.|.  @ 1 =X9X_ / / _ / :.=X_ / ! / ^ ^ / _ ",
"^ ! ! Q Q Q Q ! ^ Q ^ ^ ^ yX# @.#.- O O ,X-X+ $.qXl 3 qX4.3 <XOX  2.uX3 i 3Xb O X 2 7.g 2 o.` / / / / / ~ ~ / ! Q ! ! ! ",
"/ ! Q Q Q Q ! ! Q Q Q Q ! 9X=X#.g 3 o   -X-X: d =.*.=.cXdXOXlXaX#.=.=.: f 0Xc   - 2 g ;.>X/ _ / ^ _ ` ` _ ^ _ / / _ / / ",
"_ / ^ ! Q ! ~ / / ! Q ^ ^ 3.MX:.# h 1 o ;X-X- + O e.uXVXVXBXVXmX0X=.O O y 4X)   g 2   3X_ ' { _ / _ ` ` ` ` ` ` ` ` ' _ ",
"_ / ^ ! Q ! / / / / / _ _ [ *X:.< $.| 3 f c |.e.|.) f | >XNX;.v f :.|.|.q.l d w -.b   3X{ { _ _ _ / / ^ ^ ~ Q ^ _ _ _ _ ",
"! Q Q ! / / / / / / / / / _ [.-.2 #.@.x - 2 ;X-X-Xc 3 i t.zX@.w y =.:X;Xe.+ r k #.v X 2X_ / ~ ~ ^ / / ^ / ~ ~ ~ ~ ~ Q ~ ",
"Q Q ! / / ~ / / / / / / / tX  I -., g 7.g i + . O |.pXBX4X< xXMX0X:.  o # h $.;.o w 9.h 3 o.` ' { ' _ _ ` ' ` _ / ! ^ ! ",
"/ / / / ~ ~ / / / ` / / / {.t.#.g o h ;.@.c + e Y :.,.:X_.r.=XE.=.R Y & @ | <.:.+ < x ;.r._ _ _ _ ' ' ` ` ` ` _ _ / / ~ ",
"/ / ( _ / / / ! ^ ^ ! ! Q Q Q 9.2 2 b :.:.&.X U /.H + 9 1.xXb 9 - Y /.9 1 :.-.:.2 2 3 tX/ / ^ / ~ ! ~ ~ ~ ~ ~ ~ ^ ~ ~ / ",
"/ / / ~ / / ! ~ ! ^ ! ! ^ ! ! 9XaXaXy.y y 3 . V Y.P T !.E -.W.Q.$.T U < O i 2 0 pXdXaX` / / / ^ ~ ~ ~ ~ ~ ~ ~ ~ ^ ^ ~ ^ ",
"! / ! / ^ ! ! / ^ ^ / ~ / / / / [ eXR.5 5 4   m v...R ^.W.W !.~.*.v l O + 5 8 8 yXO./ / / / / / ~ ~ ~ / _ ~ ~ ^ / / / ^ ",
"/ _ / / / ~ ! ! ! ! ! ! ! ! _ / rXd m D.A.g.% m A.v.A.v.Y./.K 0 s h d + 5 m.A.C.% -./ / ' / / ^ ^ ^ ~ ^ _ _ ~ / _ ~ ~ ~ ",
"Q / ` / ! ^ / / / / _ / / ~ ! ! 9Xd M v.l.d.. N n.x.N.C.Z.U r g g g g o 4 j.N.c.X -./ / _ / / / ^ / / ~ ~ ~ ~ / / ~ ~ Q ",
"/ / _ ` _ / / _ _ _ / ! ! ~ / ~ eXh M D.z.d.$ C n.v.N.C.G * r l g g g # 4 x.z.x.$ &./ ` _ / ~ / ^ ~ ~ ~ _ ~ ~ / ^ ^ / / ",
"^ ! ! / _ ' ' _ _ / / ! ! ~ ~ ~ / 3.5X% $ $ . m M.m.m.% $ # o < h h h # . $ $ & o./ _ / / / / / / ~ ^ ~ ~ ~ ~ / / / _ ~ ",
"/ ^ ! ! ~ ! / / / / / ! / / _ / / / 2X  : <   m z.f.s.| K H ) b s d g O X 3 & + ` _ ` ` ' ' ' ' _ _ _ / ^ / ~ ~ ^ ^ ~ ~ ",
"! ! ! ~ ! ! ! ! ~ ! ! ! / ~ ~ / / / 2Xo =.#.@ C l.6 2 NX]./.vXlXo < g o 1 :.0 # ` / / / / / / / / / ~ ~ ^ / ^ ^ ^ ^ ~ ~ ",
"/ ~ / / ! / ~ / ~ / / ~ ~ / ~ / / / 2X. h j Z N Z 1.=X4X'.I.`.>X|.#.2 < 3 k , * / ` _ _ _ / / / _ _ _ / ^ ~ ^ / ^ ~ ^ ~ ",
"/ ~ ~ ~ ~ ~ / / / / / ! ^ ^ ^ ~ ~ ( ,X$ + 6 b.V , sXbXl s # k #.VXr.< d r . @ & ' ` / / / / / / / _ _ ~ ~ / / _ / ~ ~ ~ ",
"/ ~ / ! ~ ~ / / / / / ^ / ~ / / 9Xh U (.9     y.VX<.n VX3X1 cXcX1 2XBXh     W.(.& :.` _ / _ _ / ~ / ~ ~ / / ~ ~ ~ / ~ ~ ",
"! ! ! ! ^ ~ ~ / _ / / / _ / _ / {.8.U.W.e @   #.dX@.p uX;X2.6X>X< 8.aXr   : U W.;.>X/ / / _ _ / ~ / / _ / / / / ^ / / _ ",
"/ ! / ~ ^ ^ / / _ / / _ ^ ~ ~ / / ` 9XO 2 d X < h > X   9.] k o   < h o @ g o . _ / / / ` _ ' _ / / / / / / ~ ^ ^ ^ ~ / ",
"! ! ! / ~ / / ^ ^ ^ ^ ~ / / _ _ ` _ *XtXf > y 2 : D S   9._ g % F m - p 3 , e.uX_ ~ / / / / ` ` _ ^ ^ ~ / ^ ^ ! ~ ~ ~ ~ ",
"/ ^ ^ ! ~ ~ / / / _ ~ / _ _ _ _ _ _ ] +.K = h 3 % a.j.  9._ k 6 c.Z $ s r % 7X_ _ / _ ` / ~ _ _ ~ ~ / ^ / ^ ^ ^ ~ / / / ",
"^ / / ! Q ^ / / / / _ _ / _ / _ ' ` tXh f.p.@ N h.x.l.  9.] k 6 S.j.k.7 6 g.J g _ / / ` ` / / ` / / / / / / ` ' ' ' _ / ",
"/ / ^ ^ ^ Q ! ^ ^ / _ / / / _ _ ~ ~ aX%.G F . M p.s.F . 9._ g & d.a.s.7 4 F P %._ ' ` ` ` / ~ ~ / _ _ / _ / _ _ ' ' _ _ ",
"/ / / / ~ / ~ ~ ~ ~ ~ / _ _ ' _ _ / _ _ j .   X         w./ g o         X . uX` ` ` / / / / ~ / ~ ^ ^ / _ _ _ / / _ / _ ",
"/ / / / _ _ / _ / ` _ ` _ ' ' ' ` ` ' ' eX2X2X2X2X2X2X2XO.` tX2X1X2X<X<X2X1X] ` ` ` ` ` ` _ / / / / / / ^ ^ ~ ~ / ~ / ^ ",
"^ ! ^ / / / / / _ / / / _ ' ' ` _ _ _ ` ` ` _ _ _ / / ` ` _ _ _ _ / / _ / _ ' ` _ ` _ _ _ / _ ` _ / / / / _ / / ^ ~ ~ ~ ",
"! ! ! / / / / / ~ / / ` ~ ~ ~ ~ _ _ ` ` _ ` _ _ / / / / / / _ _ ` / / ^ ^ / ` _ / _ / / / / / / ! ~ ~ ~ / / / _ _ _ ^ ^ "
};
