/* XPM */
static char *bf2555afd1824a4bea7106e74f51063dCADhv8Dhbp4n2qY3[] = {
/* columns rows colors chars-per-pixel */
"60 60 135 2 ",
"   c #0B4C2E",
".  c #0D4E31",
"X  c #154E35",
"o  c #0E5133",
"O  c #0C583A",
"+  c #125336",
"@  c #145439",
"#  c #1A543A",
"$  c #145D3E",
"%  c #1C5C3F",
"&  c #205A3F",
"*  c #145D40",
"=  c #1D5E41",
"-  c #235E43",
";  c #0F6744",
":  c #0E6844",
">  c #126743",
",  c #126A46",
"<  c #136E49",
"1  c #14734C",
"2  c #157650",
"3  c #147C54",
"4  c #187C55",
"5  c #226145",
"6  c #286247",
"7  c #256348",
"8  c #2B664B",
"9  c #2C694D",
"0  c #316A4F",
"q  c #2F6B51",
"w  c #316B51",
"e  c #367457",
"r  c #32775A",
"t  c #3E755B",
"y  c #367A5E",
"u  c #337B5C",
"i  c #39785B",
"p  c #3B7A5F",
"a  c #3A7D5E",
"s  c #3B7A5E",
"d  c #387D60",
"f  c #397E60",
"g  c #397F60",
"h  c #387E62",
"j  c #3C7C60",
"k  c #3C7E60",
"l  c #3C7E62",
"z  c #41735B",
"x  c #40745B",
"c  c #447F66",
"v  c #427F65",
"b  c #3E8164",
"n  c #3E8266",
"m  c #3D8465",
"M  c #3F8467",
"N  c #3D8365",
"B  c #3E8668",
"V  c #3C8B6C",
"C  c #3D8B6C",
"Z  c #3C8B6D",
"A  c #3E8E6C",
"S  c #3F8E6C",
"D  c #3F8E6D",
"F  c #3E8F6D",
"G  c #3F8F6D",
"H  c #3E8E6E",
"J  c #3F8E6E",
"K  c #3E8F6E",
"L  c #3F8E6F",
"P  c #3D8D6D",
"I  c #408165",
"U  c #408266",
"Y  c #418668",
"T  c #468468",
"R  c #468569",
"E  c #438569",
"W  c #488169",
"Q  c #48876B",
"!  c #49866D",
"~  c #4A866D",
"^  c #49856B",
"/  c #408D6C",
"(  c #418D6D",
")  c #408E6D",
"_  c #418E6D",
"`  c #408D6E",
"'  c #418D6E",
"]  c #418D6F",
"[  c #408E6E",
"{  c #438F6E",
"}  c #428F6F",
"|  c #438F6F",
" . c #468C6E",
".. c #448E6F",
"X. c #428D6E",
"o. c #498E6F",
"O. c #4C8B6F",
"+. c #53876E",
"@. c #52856E",
"#. c #508A6F",
"$. c #43906F",
"%. c #468F71",
"&. c #488F70",
"*. c #498F70",
"=. c #498F71",
"-. c #4A8E70",
";. c #4A8E71",
":. c #4A8F71",
">. c #4B8D72",
",. c #488E72",
"<. c #498E72",
"1. c #498F72",
"2. c #498E73",
"3. c #498F73",
"4. c #4A8F73",
"5. c #4C8C71",
"6. c #568772",
"7. c #548670",
"8. c #568870",
"9. c #518E72",
"0. c #518F75",
"q. c #548B71",
"w. c #588972",
"e. c #5D8E76",
"r. c #469072",
"t. c #4A9074",
"y. c #4E9577",
"u. c #4E9679",
"i. c #519377",
"p. c #53977B",
"a. c #53977C",
"s. c #52977A",
"d. c #53997B",
"f. c #62927D",
"g. c #679880",
/* pixels */
"3 3 2 -  .3 3 3 3 3 3 3 3 3 3 3 3 3 3 3 3 3 3 3 3 3 = L 3 3 3 3 3 3 3 3 3 3 3 3 3 3 3 3 3 3 3 3 3 1 V 3 3 3 3 3 3 3 3 3 ",
"3 3 2 -  .3 3 3 3 3 3 3 3 3 3 3 3 3 3 3 3 3 3 3 3 3 - L 3 3 3 3 3 3 3 3 3 3 3 3 3 3 3 3 3 3 3 3 1 9 A 1 3 3 3 3 3 3 3 3 ",
"3 3 2 - $.3 3 3 3 3 3 3 3 3 3 3 3 3 3 3 3 3 3 3 3 3 * L 3 3 3 3 3 3 3 3 3 N 3 3 3 3 3 3 3 3 3 3 1 9 A N 3 3 3 3 3 3 3 3 ",
"3 3 2 > $.3 3 3 3 3 3 3 3 3 3 3 3 3 3 3 3 3 3 3 3 3 = Z 3 3 4 3 3 3 3 3 3 3 3 3 3 3 3 3 3 3 3 3 1 9 A 3 3 3 3 3 3 3 3 3 ",
"3 3 1 - $.3 3 3 3 3 3 3 3 3 3 3 3 3 3 3 3 3 3 3 3 3 - K 3 3 3 3 3 3 3 3 3 3 3 1 3 3 3 3 3 3 3 3 1 9 A 3 3 3 3 3 3 3 3 3 ",
"3 3 2 5 $.3 3 3 3 3 3 3 3 3 3 3 3 3 3 3 3 3 3 3 3 2 - C 3 3 3 3 3 3 3 3 3 3 3 N 3 3 3 3 3 3 3 3 1 , A 3 3 3 3 3 3 3 3 3 ",
"3 < < - I 1 3 3 3 3 3 3 3 3 3 3 3 3 3 3 3 3 3 3 < 1 - d 2 3 3 3 3 3 3 N 3 3 N 1 3 3 3 3 3 3 3 1 , 9 N : 1 N 3 3 3 3 3 3 ",
"1 , , % a 1 1 1 2 < < 2 1 1 2 < 3 1 1 1 1 1 1 1 < , = u < 2 2 < 1 1 : 1 1 : 1 1 1 1 1 1 1 1 1 : : 7 N : 1 1 1 1 1 1 3 : ",
"8 8 8 8 0 8 8 8 8 9 9 9 8 0 - # 8 8 9 q 9 9 9 q 9 8 8 0 8 8 8 8 , 9 9 9 9   6 8 8 9 1 , 9 9 9 9 9 9 9 9 , 1 6 9 9 8 8 8 ",
"K K ) K K L L L L L K K L j d t 7.Z L L Z L L L K K K K %.L L L F A A A b + d.m S S S A A A A A F $.A A A A S S { S m b ",
"3 3 3 3 3 3 3 3 3 3 3 3 3 < < t n 3 4 3 3 3 3 3 3 3 3 4 3 3 3 3 3 3 3 3 > o y.: N 1 3 3 3 N 3 3 3 3 N N 3 3 3 N : N 1 , ",
"3 3 3 3 3 3 3 3 3 3 3 3 3 3 < t C 3 4 3 3 3 3 3 3 3 3 3 3 3 3 3 3 3 3 3 1 o y.N 3 3 3 3 3 1 3 3 3 1 N : 3 3 3 3 3 3 1 N ",
"3 3 3 3 3 3 3 3 3 3 3 3 3 3 < t %.4 4 3 3 3 3 3 3 3 3 3 3 3 3 3 3 3 3 3 N O F 3 3 3 3 3 3 3 3 3 3 3 3 3 3 3 3 3 3 N 3 3 ",
"3 3 3 3 3 3 3 3 3 3 3 3 3 3 < t C 3 4 3 3 3 3 3 3 3 3 3 3 3 3 3 3 3 3 3 1 O d.3 3 3 3 3 3 3 3 3 3 3 3 3 3 3 3 3 3 1 3 3 ",
"3 3 3 3 3 3 3 3 3 3 3 3 3 3 < t %.3 3 3 3 3 3 3 3 3 3 3 3 3 3 3 3 3 3 3 3   y.N 3 3 3 3 3 3 3 3 3 3 3 3 3 3 3 3 3 3 3 1 ",
"3 3 3 3 3 3 3 3 3 3 3 3 3 3 < j K 3 3 3 3 3 3 3 3 3 3 3 3 3 3 3 3 3 3 3 N   $.3 3 3 3 3 3 3 3 3 3 3 3 3 3 3 3 3 3 3 3 3 ",
"3 3 3 3 3 3 1 N 3 3 1 N 1 N > b K 3 3 3 3 3 3 3 3 3 3 3 2 1 N 1 3 3 N 3 3   d.N 1 3 3 3 3 3 3 3 3 3 3 3 3 3 3 1 3 3 3 3 ",
"3 3 3 3 3 3 1 3 3 3 1 3 3 > > e a 1 3 3 3 3 3 3 3 3 3 3 3 N 1 N 3 3 1 3 :   o.1 3 3 3 1 3 3 3 3 3 3 3 3 3 3 3 N 3 3 1 , ",
"4 1 1 4 3 3 N : 3 1 1 3 1 : : b a 1 3 2 2 3 2 2 3 3 3 3 N 1 1 N 1 3 3 1 :   o.1 3 3 3 3 4 3 3 3 3 3 1 3 1 3 1 3 3 3 , , ",
"= % >   O : $ : $ : % > $ : $ $ 6 = % > = = > > = = . = O : O O % $ > : > + 6 % > $ $ : % % % % $ o $ $ > : $ > % $ > O ",
"*.m m 5 G S { A S A F $.F F G A o.1.t.r.3.t.P F Q Q & #.m A A F F F $.F $.G A A o.o.{ { o.o.{ T N 9 8.o.F F $.A o.$.o.o.",
"N : 1 = m : N 1 N 1 1 N 3 3 N 3 2 3 3 3 3 2 3 1 1 1 - m N 1 1 N 3 3 N 1 N 3 3 3 3 1 3 3 4 4 3 1 > 9 b 1 3 3 N 3 4 3 1 N ",
"3 3 1 5 F N 3 3 3 3 N 1 3 3 3 3 3 3 3 3 3 3 3 N N 1 % A 3 3 N 1 3 3 3 3 1 3 3 3 3 3 3 3 3 3 3 3 1 9 S N 3 3 3 3 3 3 3 3 ",
"3 1 N 5 A 3 3 3 3 3 3 3 3 3 3 3 3 3 3 3 3 3 3 3 N 1 > A 3 3 3 3 3 3 3 3 3 3 3 3 3 3 3 3 3 3 3 3 1 1 m 1 3 3 3 3 3 3 3 3 ",
"3 3 : > S 1 N 1 3 3 3 3 3 3 3 3 3 3 3 3 3 3 3 3 1 3 - S N 1 3 3 3 3 3 3 3 3 3 3 3 3 3 3 3 3 3 3 1 9 V N 1 3 3 3 3 3 3 3 ",
"3 3 N % S N 3 3 3 3 3 3 3 3 3 3 3 3 3 3 3 3 3 3 3 3 & S 1 N 3 3 3 3 3 3 1 N 3 3 3 3 3 3 3 3 3 3 N 9 V 1 1 3 3 3 3 3 3 3 ",
"3 3 1 > A 3 3 3 3 3 3 3 3 3 N 3 3 3 3 3 3 3 3 3 3 3 > S N 3 3 3 3 3 3 3 3 3 3 3 3 3 3 3 3 3 3 3 : 9 A N 3 3 3 3 3 3 3 3 ",
"3 3 3 : A 3 3 3 3 3 3 3 3 3 1 3 3 3 3 3 3 3 3 3 3 1 > S 1 3 3 3 3 3 3 3 3 3 3 3 3 3 3 3 3 3 3 N : 1 A N N 3 3 3 3 3 3 3 ",
"N 1 1 5 m N 1 3 1 1 N 3 1 N N 1 3 3 3 3 N N : 3 1 1 & m 1 3 3 3 3 3 3 3 3 3 N 1 3 3 3 3 1 1 N 1 , 6 N N 1 3 3 3 3 3 3 3 ",
"1 , , 5 m 1 3 3 N N 1 3 3 1 1 N N 1 3 3 1 N N 1 1 1 5 m 3 3 3 3 3 N 3 3 N 3 1 N 3 3 3 3 N N 1 : , > N 1 3 3 3 3 3 N 3 3 ",
"  O + + $ $ O o $ + + $ O O o   + O   O + + + + + + + % $ O O o + + + +     $ + o $ O o + + + + + + + + $ O O o $ + o   ",
"y.$.y.y.y.y.y.$.y.y.y.y.$.m b b e.y.y.$.d.y.d.y.d.d.y.y.y.y.y.$.d.y.d.$.A o f.*.y.y.y.$.y.y.d.y.d.y.y.y.y.y.y.$.y.y.$.A ",
"N 3 3 N 3 3 N 3 3 3 3 3 3 1 : N m 3 3 3 3 3 3 3 3 3 3 3 3 3 3 3 3 3 3 3 1   $.3 3 3 3 3 3 3 3 3 3 3 3 3 3 3 3 3 3 3 3 1 ",
"N 1 3 1 3 3 1 3 3 3 3 3 3 3 : N A 3 N 3 3 3 3 3 3 3 3 3 3 3 3 3 3 3 3 3 3   d.N 3 3 3 3 3 3 3 3 3 3 3 3 3 3 3 3 3 3 3 3 ",
"3 3 3 3 3 3 3 3 3 3 3 3 3 1 : b A 3 3 3 3 3 3 3 3 3 3 3 3 3 3 3 3 3 3 3 3   F 3 3 3 3 3 3 3 3 3 3 3 3 3 3 3 3 3 3 3 3 3 ",
"3 3 3 3 3 3 3 3 3 3 3 3 3 N : 0 A 3 3 3 3 3 3 3 3 3 3 3 3 3 3 3 3 3 3 3 N O y.3 3 3 3 3 3 3 3 3 3 3 3 3 3 3 3 3 3 3 3 3 ",
"3 3 3 3 3 3 3 3 3 3 3 3 3 3 : N A 3 3 1 3 3 3 3 3 3 3 3 3 3 3 3 3 3 3 3 N   y.N 3 3 3 3 3 3 3 3 3 3 3 3 3 3 3 3 3 3 3 3 ",
"3 3 3 3 3 3 3 3 3 3 3 3 3 3 : b F 3 3 N 3 3 3 3 3 3 3 3 3 3 3 3 3 3 3 3 3   F 3 3 3 3 3 3 3 3 3 3 1 3 3 3 3 3 3 3 3 3 3 ",
"3 3 3 3 3 3 3 3 3 3 3 3 3 3 : b A 3 3 1 3 3 3 3 3 3 N 3 3 3 3 3 3 3 3 3 3 o y.N N 3 3 3 3 3 3 3 3 N 3 3 3 3 3 3 3 3 3 3 ",
"3 3 3 3 3 3 3 3 3 3 3 3 3 1 , 9 m 3 3 1 N 3 3 1 3 3 3 3 3 3 3 3 3 3 3 3 1   $.3 3 3 3 3 3 3 3 3 3 3 3 3 3 3 3 1 3 3 1 : ",
"N 1 : N 3 3 N 1 1 3 1 3 1 > , b N 1 1 N : 3 1 N N 1 1 1 1 3 1 3 1 1 : N >   o.: 3 1 3 3 1 3 3 1 N : N 1 N 1 1 N 3 4 1 , ",
"O $ > + $ $ O > % > $ : > % % % > > % = $ > $ : $ > o % % % > > > > $ > % % 6 > > : 5 % % 5 % % % o O O O : $ : % % 5 % ",
"A m m 6 o.Y A F { A A A A m o.{ F F F A S A F A m m % #.{ o.A F S { F F $.o.F F S { { { A A o.Y N 9 / A A A F A o.$.{ { ",
"N : > % m 1 3 3 N 1 N 1 N N : N 1 N 3 3 N 1 N 1 : 1 $ N 1 N 3 3 1 N 3 3 1 N 3 3 3 3 4 3 N 1 N , : 6 b : N 1 N 3 3 N 4 3 ",
": 3 1 : A 3 3 3 3 3 3 3 1 3 3 3 3 3 3 3 3 3 3 3 N 3 > A 3 3 3 3 N 3 3 3 3 3 3 3 3 3 3 3 1 3 3 3 1 9 A 1 3 3 3 3 3 3 3 3 ",
"N 1 1 > A 1 3 3 3 3 3 3 3 3 3 3 3 3 3 3 3 3 3 3 1 3 $ A 3 3 3 3 1 3 3 3 1 N 3 3 3 3 3 3 3 3 3 3 1 0 A N 3 3 3 3 3 3 3 3 ",
"3 1 1 = F N 3 3 3 3 3 3 3 3 3 3 3 3 3 3 N 3 1 3 3 1 % A 3 3 3 3 3 3 3 3 3 3 3 3 3 3 3 3 3 3 3 3 3 1 V 1 3 3 3 3 3 3 3 3 ",
"3 N 3 5 F 3 3 3 3 3 3 3 3 3 3 3 3 3 3 3 3 3 1 N 3 N 5 A 3 3 3 3 3 3 3 3 3 3 3 3 3 3 3 3 3 3 3 3 : , V N 3 3 3 3 3 3 3 3 ",
"3 3 1 5 $.3 3 3 3 3 3 3 3 3 3 3 3 3 3 3 3 3 3 3 3 3 $ A N 3 3 3 3 3 3 3 3 3 3 3 3 3 3 3 3 3 3 3 1 1 m N 1 3 3 3 3 3 3 3 ",
"3 3 1 5 $.N 3 3 3 3 3 3 3 3 3 3 3 3 3 3 3 3 3 3 1 N % A 1 3 3 N 3 3 3 3 3 3 3 3 3 3 3 3 3 3 3 3 1 9 m N 3 3 3 3 3 3 3 3 ",
"3 : 1 > m 3 3 3 3 3 1 1 3 3 3 3 3 3 3 3 3 3 3 3 1 1 % m 3 3 3 3 3 3 3 3 3 3 3 3 3 3 3 1 3 3 3 1 , e N 1 3 3 3 3 3 3 3 3 ",
"3 : : > m : 3 3 3 1 N N 3 3 3 N 3 3 3 3 3 3 3 3 , 1 - m 1 3 3 3 3 3 3 3 3 3 1 N 3 3 3 N 3 3 3 : : 9 b : 3 3 3 3 3 3 3 3 ",
"$ $ :   > $ $ $ $ $ $ $ $ + > o > + % > : $ $ $ O O o 5 $ $ $ > $ $ $ O O : O > $ > + % $ $ : : + # = > O > $ $ O > O $ ",
"o.{ S A o.o.o.o.S A o.o.o.T b 9 +.o.o.o.A S o.S A A $.o.o.9.o.$.o.o.S A m o e.T o.o.o.o.o.o.S F o.o.{ S A G o.{ A A o.T ",
"N 1 N 1 3 3 N 1 3 3 1 N N : , b b 1 3 3 4 3 4 1 3 N 1 N 4 4 3 3 N N 3 3 :   o.1 4 4 4 3 4 4 3 3 N 1 3 3 1 N 4 3 3 3 1 : ",
": N 3 3 3 1 N 1 3 3 3 1 N 1 : 9 S 4 3 3 3 3 3 4 3 3 1 3 3 3 3 3 3 : 3 3 N   $.N 3 3 3 3 3 3 3 3 3 3 3 3 1 3 3 3 3 3 N 3 ",
"N 3 3 3 3 3 3 3 3 3 3 3 3 3 : N S 4 3 3 3 3 3 3 3 3 3 3 3 3 3 3 3 N 1 3 3   $.3 3 3 3 3 3 3 3 3 3 3 3 3 3 3 3 3 3 3 3 1 ",
"1 3 3 3 3 3 3 3 3 3 3 3 3 3 1 N S 4 3 3 3 3 3 3 3 3 3 3 3 3 3 3 3 3 3 3 N   d.N 3 3 3 3 3 3 3 3 3 3 3 3 3 3 3 3 3 3 3 3 ",
"3 3 3 3 N 1 3 3 3 3 3 3 3 3 : 9 S 3 3 3 3 3 3 4 3 3 3 3 3 3 3 3 3 3 3 3 1   $.3 3 3 3 3 3 3 3 3 3 3 3 3 3 3 3 3 3 3 3 3 ",
"3 3 3 3 3 3 3 3 3 3 3 3 1 N 1 N S 3 3 3 3 3 3 4 3 3 3 3 3 3 3 3 3 3 3 3 N O y.3 3 3 3 3 3 3 3 3 3 1 N 3 3 3 3 3 3 3 3 1 "
};
